<svg xmlns="http://www.w3.org/2000/svg" viewBox="0 0 24 24"><title>cobalt_icons</title><rect width="24" height="24" style="fill:none"/><path d="M13.16,12,15.71,1.74l-1.5-.39h0a1.58,1.58,0,0,0-1.9,1.12L10,11.67H9.27a4.14,4.14,0,1,0-4,5.17,4,4,0,0,0,1.43-.27,4.3,4.3,0,0,0-.38.94,4.15,4.15,0,0,0,8,2.06c.48-1.88-.38-4-2-4.58,0,0,0,0,0,0h9A1.74,1.74,0,0,0,23,13.36V12Zm-2.67,0A1.5,1.5,0,1,1,9,13.5,1.5,1.5,0,0,1,10.49,12ZM8.9,14.66Zm-3.64.64a2.6,2.6,0,1,1,2.59-2.59A2.6,2.6,0,0,1,5.26,15.3Zm7.57,3.89a2.58,2.58,0,0,1-2.5,1.95,2.82,2.82,0,0,1-.65-.08,2.59,2.59,0,0,1,.64-5.1A2.36,2.36,0,0,1,11,16,2.59,2.59,0,0,1,12.83,19.19Z"/></svg>