<svg xmlns="http://www.w3.org/2000/svg" viewBox="0 0 24 24"><title>cobalt_icons</title><path d="M18.32,18.19a7.09,7.09,0,0,0-.22-1,5.42,5.42,0,0,0-3.85-2.73L12,16.5l-2.25-2S6.54,16.11,6,17.16a8.69,8.69,0,0,0-.22,1c0,.07-.21,1.92-.25,2.81h13C18.46,20.11,18.32,18.26,18.32,18.19Z"/><path d="M12,13a2.91,2.91,0,0,0,2.83-3.07L15,8a2.78,2.78,0,0,0-.21-1.18,1,1,0,0,0-.85-.59C14,5.35,12.7,5,12,5A3,3,0,0,0,9,8l.17,1.9A2.91,2.91,0,0,0,12,13Z"/><rect width="24" height="24" style="fill:none"/><path d="M2,2V22H22V2ZM20.5,20.5H3.5V3.5h17Z"/></svg>