<svg xmlns="http://www.w3.org/2000/svg" viewBox="0 0 24 24"><title>cobalt_icons</title><rect width="24" height="24" style="fill:none"/><path d="M2,2V22H22V2ZM20.5,20.5H3.5V3.5h17Z"/><rect x="12" y="7" width="6" height="1"/><rect x="12" y="14" width="6" height="1"/><rect x="12" y="9" width="6" height="1"/><polygon points="8 10 9 10 9 11 11 11 11 9 10 9 10 8 11 8 11 6 9 6 9 7 8 7 8 6 6 6 6 8 7 8 7 9 6 9 6 11 8 11 8 10"/><rect x="12" y="16" width="6" height="1"/><polygon points="8 17 9 17 9 18 11 18 11 16 10 16 10 15 11 15 11 13 9 13 9 14 8 14 8 13 6 13 6 15 7 15 7 16 6 16 6 18 8 18 8 17"/></svg>