<svg xmlns="http://www.w3.org/2000/svg" viewBox="0 0 24 24"><title>cobalt_icons</title><rect width="24" height="24" style="fill:none;opacity:0.5"/><rect x="16" y="8.25" width="8" height="1.5"/><rect x="16" y="8.25" width="8" height="1.5" transform="translate(29 -11) rotate(90)"/><path d="M4.15,12a6.25,6.25,0,0,0,3.1-1c-.25,0-.67-.53-.78-1.48s-.21-2.08-.21-2.08h0A2.72,2.72,0,0,0,4,5.5a2.2,2.2,0,0,0-1.3.43,1.72,1.72,0,0,0-.43.46.69.69,0,0,0-.12.29s0,.32,0,.32a.36.36,0,0,0-.26.17,2.47,2.47,0,0,0-.19.94c0,.44-.09,1-.14,1.44C1.42,10.5,1,11,.75,11a6.25,6.25,0,0,0,3.1,1h.3Z"/><path d="M3.06,14.36s-.54.45-.56.89V18.5H0S.29,15.12.29,15a2.72,2.72,0,0,1,.1-.55C.78,13.52,1.7,13.19,3.52,13h1A12.54,12.54,0,0,0,3.06,14.36Z" style="fill-rule:evenodd"/><path d="M11,11.75A3.44,3.44,0,0,0,14.3,8.11l.2-2.26a3.39,3.39,0,0,0-.25-1.41,1.14,1.14,0,0,0-1-.69c0-1.09-1.45-1.5-2.28-1.5A3.52,3.52,0,0,0,7.5,5.85l.15,2.26A3.44,3.44,0,0,0,11,11.75Z"/><path d="M11,22h7.5c0-1-.21-5.08-.21-5.16A7.73,7.73,0,0,0,18,15.76,6.18,6.18,0,0,0,13.5,13L11,15l0,0Z"/><path d="M11,22H3.5c0-1,.21-5.08.21-5.16A7.73,7.73,0,0,1,4,15.76,6.18,6.18,0,0,1,8.5,13L11,15l0,0Z"/></svg>