<svg xmlns="http://www.w3.org/2000/svg" viewBox="0 0 24 24"><title>cobalt_icons</title><rect width="24" height="24" style="fill:none"/><rect x="8" y="11" width="2" height="2"/><path d="M16,6V9H8V6h8m1-1H7v5H17V5Z"/><rect x="5" y="11" width="2" height="2"/><rect x="5" y="18" width="6" height="1"/><rect x="5" y="16" width="6" height="1"/><rect x="5" y="14" width="6" height="1"/><path d="M11,20H5a1,1,0,0,1-1-1V5A1,1,0,0,1,5,4H19a1,1,0,0,1,1,1v6h1V5a2,2,0,0,0-2-2H5A2,2,0,0,0,3,5V19a2,2,0,0,0,2,2h6Z"/><path d="M12,12v9h9V12Zm7.67,7.08a2.6,2.6,0,0,1-1.22.79,6.14,6.14,0,0,1-1.91.25A4.56,4.56,0,0,1,14,19.51a2.5,2.5,0,0,1-1.09-1.81l0-.14,1.93-.14,0,.1a1.39,1.39,0,0,0,.57.91,2.1,2.1,0,0,0,1.18.29,2.25,2.25,0,0,0,1.2-.26.67.67,0,0,0,.36-.55A.42.42,0,0,0,18,17.6a1.49,1.49,0,0,0-.58-.27c-.2,0-.66-.15-1.38-.29a5.45,5.45,0,0,1-2-.69,1.75,1.75,0,0,1-.84-1.46,1.59,1.59,0,0,1,.4-1.05,2.37,2.37,0,0,1,1.12-.72,5.58,5.58,0,0,1,1.74-.24,4.42,4.42,0,0,1,2.5.58A1.93,1.93,0,0,1,19.86,15v.13l-2,.07,0-.11a1,1,0,0,0-.42-.67,2.1,2.1,0,0,0-1-.2,2.29,2.29,0,0,0-1.12.22c-.19.11-.22.23-.22.31a.37.37,0,0,0,.21.31,5.09,5.09,0,0,0,1.54.43,10.33,10.33,0,0,1,1.9.5,2.44,2.44,0,0,1,1,.72,1.83,1.83,0,0,1,.37,1.16A1.85,1.85,0,0,1,19.67,19.08Z"/></svg>