<svg xmlns="http://www.w3.org/2000/svg" viewBox="0 0 24 24"><title>cobalt_icons</title><rect x="-0.01" y="0.01" width="24" height="24" style="fill:none;opacity:0.75"/><polygon points="16 5.54 16 11.78 18 13.78 18 5 18 3 18 2 8.75 4.52 11.1 6.88 16 5.54"/><path d="M21.18,19.79l-3.32-3.32h0l-2.34-2.34L9,7.61H9l-2-2H7L4.21,2.82,2.8,4.23,7,8.44v8.73a3.35,3.35,0,0,0-1.44,0,2.86,2.86,0,0,0-2.43,3c.25,1.27,1.73,2,3.31,1.61a2.93,2.93,0,0,0,2.44-2.74L9,19V10.44l4.33,4.32a2.5,2.5,0,0,0-1.2,2.43c.25,1.27,1.73,2,3.31,1.61a3.68,3.68,0,0,0,1.31-.61l3,3Z"/></svg>