<svg xmlns="http://www.w3.org/2000/svg" viewBox="0 0 24 24"><title>cobalt_icons</title><path d="M8.82,15.18a1.49,1.49,0,0,0,2.12,0l4.24-4.24a1.51,1.51,0,0,0,0-2.12,1.49,1.49,0,0,0-2.12,0L8.82,13.06A1.49,1.49,0,0,0,8.82,15.18Z" style="fill-rule:evenodd"/><path d="M11.58,16a1.92,1.92,0,0,1-.79.49,2.05,2.05,0,0,1-.49.79L8.07,19.48a2.41,2.41,0,0,1-3.38-.17,2.4,2.4,0,0,1-.16-3.37l2.24-2.23a2.12,2.12,0,0,1,.79-.5,2.05,2.05,0,0,1,.49-.79l1.11-1.11a4,4,0,0,0-3.81,1L3.12,14.53a4.32,4.32,0,0,0,.29,6.07,4.32,4.32,0,0,0,6.07.29l2.24-2.23a4,4,0,0,0,1-3.81Z" style="fill-rule:evenodd"/><path d="M20.59,3.4a4.31,4.31,0,0,0-6.06-.29L12.17,5.46a4,4,0,0,0-1,3.81L12.3,8.16a2,2,0,0,1,.8-.49,2.05,2.05,0,0,1,.49-.79l2.35-2.36a2.39,2.39,0,0,1,3.37.17,2.39,2.39,0,0,1,.17,3.37l-2.36,2.35a2.05,2.05,0,0,1-.79.49,1.92,1.92,0,0,1-.49.79l-1.11,1.12a4,4,0,0,0,3.81-1l2.35-2.36A4.32,4.32,0,0,0,20.59,3.4Z" style="fill-rule:evenodd"/></svg>