<svg xmlns="http://www.w3.org/2000/svg" viewBox="0 0 24 24"><title>cobalt_icons</title><rect x="2" y="17" width="6" height="2"/><rect width="24" height="24" style="fill:none"/><rect x="2" y="9" width="11" height="2"/><rect x="2" y="5" width="13" height="2"/><rect x="2" y="13" width="8" height="2"/><path d="M21,15a3.79,3.79,0,0,0-.15-1.07l1-.56-1-1.74-1,.57A4.06,4.06,0,0,0,18,11.13V10H16v1.13a4.06,4.06,0,0,0-1.85,1.07l-1-.57-1,1.74,1,.56a3.89,3.89,0,0,0,0,2.14l-1,.56,1,1.74,1-.57A4.06,4.06,0,0,0,16,18.87V20h2V18.87a4.06,4.06,0,0,0,1.85-1.07l1,.57,1-1.74-1-.56A3.79,3.79,0,0,0,21,15Zm-4,2a2,2,0,1,1,2-2A2,2,0,0,1,17,17Z"/></svg>