<svg xmlns="http://www.w3.org/2000/svg" viewBox="0 0 24 24"><title>cobalt_icons</title><path d="M12,1,1,12,12,23,23,12Zm0,16.5a3.38,3.38,0,0,1-2.36-.86,3.44,3.44,0,0,1-1.1-2.25l0-.22.2,0,1.84-.24.2,0,0,.21a1.67,1.67,0,0,0,.41,1,1,1,0,0,0,.78.32A1.07,1.07,0,0,0,12.8,15a1.66,1.66,0,0,0,.34-1.11,1.51,1.51,0,0,0-.32-1,1,1,0,0,0-.79-.37,3.06,3.06,0,0,0-.81.14l-.31.09.05-.33.21-1.61,0-.2h.26a1.38,1.38,0,0,0,1-.3,1,1,0,0,0,.33-.82,1,1,0,0,0-.23-.68.87.87,0,0,0-.65-.25.9.9,0,0,0-.68.3,1.53,1.53,0,0,0-.36.9l0,.22-.22,0L8.84,9.63l-.21,0,0-.22A4.28,4.28,0,0,1,9.25,7.8a2.67,2.67,0,0,1,1.11-1,3.44,3.44,0,0,1,1.56-.34,3.08,3.08,0,0,1,2.38,1,2.73,2.73,0,0,1,.76,1.87,2.53,2.53,0,0,1-1.13,2.11,2.59,2.59,0,0,1,1,.78A2.87,2.87,0,0,1,15.5,14,3.47,3.47,0,0,1,12,17.5Z"/></svg>