<svg xmlns="http://www.w3.org/2000/svg" viewBox="0 0 24 24"><title>cobalt_icons</title><path d="M12,1,1,12,12,23,23,12Zm3.37,14.09V17h-7l0-.22a4.52,4.52,0,0,1,.67-1.91,12.24,12.24,0,0,1,2.14-2.33A13.38,13.38,0,0,0,12.73,11a1.8,1.8,0,0,0,.36-1A1,1,0,0,0,12,8.93a1.05,1.05,0,0,0-.78.28,1.61,1.61,0,0,0-.35,1v.21l-.21,0-2-.18-.21,0,0-.2A3.42,3.42,0,0,1,9.61,7.61a3.8,3.8,0,0,1,2.32-.7,3.79,3.79,0,0,1,2.55.82,2.87,2.87,0,0,1,.9,2.14,3.39,3.39,0,0,1-.26,1.3,5,5,0,0,1-.78,1.27,11.67,11.67,0,0,1-1.24,1.24c-.59.52-1,.87-1.11,1l-.15.17h3.54Z"/></svg>