<svg xmlns="http://www.w3.org/2000/svg" viewBox="0 0 24 24"><title>cobalt_icons</title><polygon points="22 2 14.57 2 17.23 4.65 14 7.88 16.12 10 19.35 6.77 22 9.43 22 2" style="fill-rule:evenodd"/><polygon points="22 22 22 14.57 19.35 17.23 16.12 14 14 16.12 17.23 19.35 14.57 22 22 22" style="fill-rule:evenodd"/><polygon points="2 22 9.43 22 6.77 19.35 10 16.12 7.88 14 4.65 17.23 2 14.57 2 22" style="fill-rule:evenodd"/><polygon points="2 2 2 9.43 4.65 6.77 7.88 10 10 7.88 6.77 4.65 9.43 2 2 2" style="fill-rule:evenodd"/><rect width="24" height="24" style="fill:none;opacity:0.5"/></svg>