<svg xmlns="http://www.w3.org/2000/svg" viewBox="0 0 24 24"><title>cobalt_icons</title><path d="M0,0V24H24V0Z" style="fill:none"/><polygon points="2 9.5 3.5 8 7 8 13 2 14 2 14 22 13 22 7 16 3.5 16 2 14.5 2 9.5" style="fill-rule:evenodd"/><path d="M21.09,4.5,20,5.19a18.36,18.36,0,0,1,0,13.62l1.09.69A21.23,21.23,0,0,0,23,12,21.23,21.23,0,0,0,21.09,4.5ZM18.93,7.6l-1.13.65a11.37,11.37,0,0,1,.72,3.84A11.49,11.49,0,0,1,17.8,16l1.08.44A13.1,13.1,0,0,0,20,12,13.14,13.14,0,0,0,18.93,7.6ZM16,10.48a4.46,4.46,0,0,1,0,3.12l.88.47a5.89,5.89,0,0,0,0-4.14Z" style="fill-rule:evenodd"/></svg>