<svg xmlns="http://www.w3.org/2000/svg" viewBox="0 0 24 24"><title>cobalt_icons</title><rect width="24" height="24" style="fill:none"/><path d="M10.39,3.61a5.5,5.5,0,1,0,0,7.78A5.5,5.5,0,0,0,10.39,3.61ZM5.44,3.44a1.5,1.5,0,1,1,0,2.12A1.49,1.49,0,0,1,5.44,3.44Zm-3,5.12a1.5,1.5,0,1,1,2.12,0A1.49,1.49,0,0,1,2.44,8.56Zm5.12,3a1.5,1.5,0,1,1,0-2.12A1.49,1.49,0,0,1,7.56,11.56Zm.88-3a1.5,1.5,0,1,1,2.12,0A1.49,1.49,0,0,1,8.44,8.56Z"/><path d="M21.39,3.61a5.5,5.5,0,1,0,0,7.78A5.5,5.5,0,0,0,21.39,3.61Zm-4.95-.17a1.5,1.5,0,1,1,0,2.12A1.49,1.49,0,0,1,16.44,3.44Zm-3,5.12a1.5,1.5,0,1,1,2.12,0A1.49,1.49,0,0,1,13.44,8.56Zm5.12,3a1.5,1.5,0,1,1,0-2.12A1.49,1.49,0,0,1,18.56,11.56Zm.88-3a1.5,1.5,0,1,1,2.12,0A1.49,1.49,0,0,1,19.44,8.56Z"/><path d="M17.5,14.5a7,7,0,0,1-4.95-2.05c-.14-.14-.28-.3-.41-.45h-.28c-.13.15-.27.31-.41.45A7,7,0,0,1,3,13.56V22H21V13.56A7,7,0,0,1,17.5,14.5ZM17,17H7V16H17Zm0,2H7V18H17Z"/></svg>