<svg xmlns="http://www.w3.org/2000/svg" viewBox="0 0 24 24"><title>cobalt_icons</title><rect width="24" height="24" style="fill:none"/><path d="M21.78,18.1,21.67,18h0l-4.51-3.22h0a.76.76,0,0,0-1,.08.35.35,0,0,0-.07.09h0l0,0c-.3.43-.3.49-.54.87a16,16,0,0,0-1.15,2.34c-1.26-.2-3.15-1.3-5.21-3.36S6,10.91,5.78,9.64A15.09,15.09,0,0,0,8.12,8.5c.38-.25.43-.24.87-.54a.1.1,0,0,1,0,0H9l.09-.07a.77.77,0,0,0,.08-1h0L6,2.33H6l-.09-.11a.78.78,0,0,0-1-.06C2.72,3.64.77,5.27,1,7.19S3.76,13.8,7,17,14.75,22.7,16.81,23s3.55-1.69,5-3.85A.79.79,0,0,0,21.78,18.1Z"/><path d="M15,7.39,12,6l1-2,2.65,1.29L16,2H18l.48,3.4L21,4l1,2L18.94,7.62l1.81,2.87L18.86,12,16.91,9,15,12l-1.9-1.6Z"/></svg>