<svg xmlns="http://www.w3.org/2000/svg" viewBox="0 0 24 24"><title>cobalt_icons</title><rect width="24" height="24" transform="translate(24 0) rotate(90)" style="fill:none"/><rect width="24" height="24" style="fill:none"/><polygon points="7.67 4.97 13 10.67 18 6 16.75 4.75 13 8.31 8.79 3.67 13 3.67 13 2 6 2 6 9 7.67 9 7.67 4.97"/><path d="M22.91,15.74c-1.63-1.21-6.43-2.67-10.85-2.67S2.83,14.51,1.22,15.74,0,19.34.41,21.85c0,.09.27.07.65.07L6.6,21.6h0a.75.75,0,0,0,.64-.74s0-.07,0-.11h0a.17.17,0,0,1,0-.07c-.09-.5-.13-.54-.22-1a16.08,16.08,0,0,0-.83-2.39c1-.73,3.06-1.27,5.89-1.27S17,16.58,18,17.32a16.72,16.72,0,0,0-.82,2.4c-.09.42-.13.46-.22,1,0,0,0,0,0,.07h0a.37.37,0,0,0,0,.11.75.75,0,0,0,.63.74h0l5.53.32c.38,0,.64,0,.65-.08C24.06,19.32,24.15,16.66,22.91,15.74Z"/></svg>