<svg xmlns="http://www.w3.org/2000/svg" viewBox="0 0 24 24"><title>cobalt_icons</title><rect width="24" height="24" style="fill:none"/><rect width="24" height="24" style="fill:none"/><rect x="5" y="13" width="1" height="4"/><path d="M16.84,11.54l-.61,1-.87-.73-.36-.3V12H8V11h6.45l-1-.83-.67-.56.47-.74,1.29-2-2-.91-.93-.44L11.88,5H10V1A.91.91,0,0,0,9,0,.91.91,0,0,0,8,1V5H7C6.68,5,6,6,6,6L5,7v3l1,1v1H7v6H6v4c0,1,1,1,1,1a1,1,0,0,0,1,1H15a1,1,0,0,0,1-1,1,1,0,0,0,1-1V11.29ZM15,16H8V15h7Zm0-2H8V13h7Z"/><polygon points="17.92 9.86 17.52 10.48 18 10 18 9.99 17.92 9.86"/><path d="M16,6.39,13,5l1-2,2.65,1.29L17,1H19l.48,3.4L22,3l1,2L19.94,6.62l1.81,2.87L19.86,11,17.91,8,16,11,14.1,9.4Z"/></svg>