<svg xmlns="http://www.w3.org/2000/svg" viewBox="0 0 24 24"><title>cobalt_icons</title><rect x="10" y="10" width="1" height="1"/><rect x="2" y="2" width="1" height="1"/><rect x="10" y="6" width="1" height="1"/><rect x="10" y="4" width="1" height="1"/><rect x="4" y="2" width="1" height="1"/><rect x="2" y="6" width="1" height="1"/><rect x="2" y="10" width="1" height="1"/><rect x="2" y="4" width="1" height="1"/><rect x="6" y="2" width="1" height="1"/><rect x="8" y="2" width="1" height="1"/><rect x="10" y="8" width="1" height="1"/><rect x="8" y="10" width="1" height="1"/><rect x="2" y="8" width="1" height="1"/><rect x="4" y="10" width="1" height="1"/><rect x="6" y="10" width="1" height="1"/><rect x="10" y="2" width="1" height="1"/><rect x="13" y="4" width="1" height="1"/><rect x="13" y="2" width="1" height="1"/><rect x="13" y="10" width="1" height="1"/><rect x="13" y="6" width="1" height="1"/><rect x="15" y="2" width="1" height="1"/><rect x="21" y="4" width="1" height="1"/><rect x="21" y="6" width="1" height="1"/><rect x="21" y="10" width="1" height="1"/><rect x="17" y="2" width="1" height="1"/><rect x="19" y="2" width="1" height="1"/><rect x="21" y="8" width="1" height="1"/><rect x="19" y="10" width="1" height="1"/><rect x="13" y="8" width="1" height="1"/><rect x="15" y="10" width="1" height="1"/><rect x="17" y="10" width="1" height="1"/><rect x="21" y="2" width="1" height="1"/><rect x="10" y="17" width="1" height="1"/><rect x="10" y="15" width="1" height="1"/><rect x="10" y="21" width="1" height="1"/><rect x="2" y="13" width="1" height="1"/><rect x="2" y="21" width="1" height="1"/><rect x="2" y="17" width="1" height="1"/><rect x="4" y="13" width="1" height="1"/><rect x="2" y="15" width="1" height="1"/><rect x="6" y="13" width="1" height="1"/><rect x="8" y="13" width="1" height="1"/><rect x="10" y="19" width="1" height="1"/><rect x="8" y="21" width="1" height="1"/><rect x="2" y="19" width="1" height="1"/><rect x="4" y="21" width="1" height="1"/><rect x="6" y="21" width="1" height="1"/><rect x="10" y="13" width="1" height="1"/><rect x="13" y="13" width="1" height="1"/><rect x="15" y="13" width="1" height="1"/><rect x="13" y="15" width="1" height="1"/><rect x="21" y="15" width="1" height="1"/><rect x="13" y="17" width="1" height="1"/><rect x="13" y="21" width="1" height="1"/><rect x="21" y="17" width="1" height="1"/><rect x="21" y="21" width="1" height="1"/><rect x="17" y="13" width="1" height="1"/><rect x="19" y="13" width="1" height="1"/><rect x="21" y="19" width="1" height="1"/><rect x="19" y="21" width="1" height="1"/><rect x="13" y="19" width="1" height="1"/><rect x="15" y="21" width="1" height="1"/><rect x="17" y="21" width="1" height="1"/><rect x="21" y="13" width="1" height="1"/><rect width="24" height="24" style="fill:none"/></svg>