<svg xmlns="http://www.w3.org/2000/svg" viewBox="0 0 24 24"><title>cobalt_icons</title><rect width="24" height="24" style="fill:none"/><path d="M22.25,17.39c0-.39-.25-1.46-.74-1.56s-2.69-.37-2.69-.37L17.63,14h-2L17,16H13V14H12v2H8s2.14-3,2-3h.22a1.81,1.81,0,0,1-.2-.66l-4.1,3.31s-3.88.5-4.16.66-.34.31-.38.7,0,1.94,0,1.94L1,19V20.1H3.91A2.26,2.26,0,0,0,6,22a2.26,2.26,0,0,0,2.1-1.9h7.76A2.26,2.26,0,0,0,18,22a2.26,2.26,0,0,0,2.1-1.9H23V19l-.75,0S22.29,17.78,22.25,17.39ZM6,21.07A1.06,1.06,0,1,1,7,20,1,1,0,0,1,6,21.07Zm12,0A1.06,1.06,0,1,1,19,20,1,1,0,0,1,18,21.08Z"/><path d="M20.43,2H12.57A1.57,1.57,0,0,0,11,3.57v7.86A1.57,1.57,0,0,0,12.57,13h7.86A1.57,1.57,0,0,0,22,11.43V3.57A1.57,1.57,0,0,0,20.43,2Zm-1.49,9.17L16.5,8.72l-2.44,2.45L12.83,10,15.28,7.5,12.83,5.05l1.23-1.22L16.5,6.28l2.44-2.45,1.23,1.22L17.72,7.5,20.17,10Z"/></svg>