<svg xmlns="http://www.w3.org/2000/svg" viewBox="0 0 24 24"><title>cobalt_icons</title><rect width="24" height="24" style="fill:none;opacity:0.75"/><path d="M2,3V6.5H8V3ZM6,5H4V4H6Z"/><path d="M9,3V6.5h6V3Zm4,2H11V4h2Z"/><path d="M16,3V6.5h6V3Zm4,2H18V4h2Z"/><path d="M2,8v3.5H8V8Zm4,2H4V9H6Z"/><path d="M9,8v3.5h6V8Zm4,2H11V9h2Z"/><path d="M16,8v3.5h6V8Zm4,2H18V9h2Z"/><path d="M2,13v3.5H8V13Zm4,2H4V14H6Z"/><path d="M9,13v3.5h6V13Zm4,2H11V14h2Z"/><path d="M9,18v3.5h6V18Zm4,2H11V19h2Z"/><path d="M16,13v3.5h6V13Zm4,2H18V14h2Z"/></svg>