<svg xmlns="http://www.w3.org/2000/svg" viewBox="0 0 24 24"><title>cobalt_icons</title><rect width="24" height="24" style="fill:none"/><path d="M22.25,19s0-1.17,0-1.56-.25-1.46-.74-1.56-2.69-.37-2.69-.37l-.55-.68A7.4,7.4,0,0,1,16.5,15h-.17L17,16H13V14.13a7.06,7.06,0,0,1-1-.64V16H8s2.14-3,2-3h1.41a7.3,7.3,0,0,1-.8-.87h-.34L5.92,15.65s-3.88.5-4.16.66-.34.31-.38.7,0,1.94,0,1.94L1,19V20.1H3.91A2.26,2.26,0,0,0,6,22a2.26,2.26,0,0,0,2.1-1.9h7.76A2.26,2.26,0,0,0,18,22a2.26,2.26,0,0,0,2.1-1.9H23V19ZM6,21.07A1.06,1.06,0,1,1,7,20,1,1,0,0,1,6,21.07Zm12,0A1.06,1.06,0,1,1,19,20,1,1,0,0,1,18,21.08Z"/><path d="M16.5,2A5.5,5.5,0,1,0,22,7.5,5.49,5.49,0,0,0,16.5,2Zm-1,8.72-.08-.08-.12.11L13,8.56l1.18-1.13,1.3,1.22L19.5,4.82l1.11,1.07Z"/></svg>