<svg xmlns="http://www.w3.org/2000/svg" viewBox="0 0 24 24"><title>cobalt_icons</title><circle cx="12" cy="12" r="3"/><path d="M19.5,12a7.48,7.48,0,0,1-3.26,6.18l1.25.94a9,9,0,0,0,0-14.24l-1.25.94A7.48,7.48,0,0,1,19.5,12Z"/><path d="M6.51,19.12l1.25-.94a7.49,7.49,0,0,1,0-12.36L6.51,4.88a9,9,0,0,0,0,14.24Z"/><path d="M16.5,12a4.48,4.48,0,0,1-2.91,4.19l1.37,1A6,6,0,0,0,15,6.78l-1.37,1A4.48,4.48,0,0,1,16.5,12Z"/><path d="M9,17.22l1.37-1a4.47,4.47,0,0,1,0-8.38L9,6.78A6,6,0,0,0,9,17.22Z"/><rect width="24" height="24" style="fill:none"/><path d="M22.13,12a10.48,10.48,0,0,1-3.76,8.05l1.22.92A12,12,0,0,0,19.59,3L18.37,4A10.48,10.48,0,0,1,22.13,12Z"/><path d="M4.41,21l1.22-.92A10.5,10.5,0,0,1,5.63,4L4.41,3A12,12,0,0,0,4.41,21Z"/></svg>