<svg xmlns="http://www.w3.org/2000/svg" viewBox="0 0 24 24"><title>cobalt_icons</title><path d="M17,0a6,6,0,1,0,6,6A6,6,0,0,0,17,0ZM16,10,12.7,7l1.5-1.5,1.6,1.76L20,3l1.46,1.24Z"/><rect x="5" y="13" width="1" height="4"/><path d="M16,23a1,1,0,0,0,1-1V13c-.35,0-.68.05-1,.05a6,6,0,0,1-3.31-1H8V11h3.54A5.93,5.93,0,0,1,10,7a9.71,9.71,0,0,1,.21-2H10V1A.91.91,0,0,0,9,0,.91.91,0,0,0,8,1V5H7C6.68,5,6,6,6,6L5,7v3l1,1v1H7v6H6v4c0,1,1,1,1,1a1,1,0,0,0,1,1H15A1,1,0,0,0,16,23Zm-1-7H8V15h7Zm0-2H8V13h7Z"/></svg>