<svg xmlns="http://www.w3.org/2000/svg" viewBox="0 0 24 24"><title>cobalt_icons</title><path d="M0,0V24H24V0Z" style="fill:none"/><polygon points="7.2 7.8 7 8 3.5 8 2 9.5 2 14.5 3.5 16 7 16 13 22 14 22 14 14.61 7.2 7.8" style="fill-rule:evenodd"/><polygon points="14 11.78 14 2 13 2 8.61 6.39 14 11.78" style="fill-rule:evenodd"/><rect x="8.99" y="0.01" width="2" height="24" transform="translate(-5.57 10.58) rotate(-45)"/><path d="M16.87,9.93l-.87.55a4.46,4.46,0,0,1,0,3.12l.88.47A5.89,5.89,0,0,0,16.87,9.93Z" style="fill-rule:evenodd"/></svg>