<svg xmlns="http://www.w3.org/2000/svg" viewBox="0 0 24 24"><title>cobalt_icons</title><path d="M0,0V24H24V0Z" style="fill:none"/><polygon points="14 14.61 7.2 7.8 7.2 7.8 2.21 2.82 0.8 4.23 4.57 8 3.5 8 2 9.5 2 14.5 3.5 16 7 16 13 22 14 22 14 17.43 17.77 21.2 19.18 19.79 14 14.61 14 14.61"/><polygon points="14 2 13 2 8.61 6.39 14 11.78 14 2"/><path d="M17.8,8.25a11.37,11.37,0,0,1,.72,3.84,11.42,11.42,0,0,1-.63,3.58l.55.55.44.18A13.1,13.1,0,0,0,20,12a13.14,13.14,0,0,0-1.07-4.4Z"/><path d="M21.09,4.5,20,5.19A18.46,18.46,0,0,1,21.31,12a18.7,18.7,0,0,1-1,6l.33.33.67.67A19.9,19.9,0,0,0,23,12,21.23,21.23,0,0,0,21.09,4.5Z"/><path d="M16.87,9.93l-.87.55a4.46,4.46,0,0,1,0,3.12l.88.47A5.89,5.89,0,0,0,16.87,9.93Z" style="fill-rule:evenodd"/></svg>