<svg xmlns="http://www.w3.org/2000/svg" viewBox="0 0 24 24"><title>cobalt_icons</title><g style="opacity:0.4"><rect x="6" y="3" width="15" height="8"/></g><g style="opacity:0.4"><rect x="6" y="13" width="15" height="8"/></g><g style="opacity:0.4"><rect x="3" y="3" width="2" height="8"/></g><g style="opacity:0.4"><rect x="3" y="13" width="2" height="8"/></g><rect x="4" width="1" height="1"/><rect x="5" y="23" width="1" height="1"/><rect x="2" width="1" height="1"/><rect x="3" y="23" width="1" height="1"/><rect x="8" width="1" height="1"/><rect x="9" y="23" width="1" height="1"/><rect x="10" width="1" height="1"/><polygon points="1 22 0 22 0 24 2 24 2 23 1 23 1 22"/><rect x="6" width="1" height="1"/><rect x="7" y="23" width="1" height="1"/><rect width="1" height="1"/><rect y="6" width="1" height="1"/><rect y="4" width="1" height="1"/><rect x="11" y="23" width="1" height="1"/><rect y="8" width="1" height="1"/><rect y="2" width="1" height="1"/><rect y="14" width="1" height="1"/><rect y="10" width="1" height="1"/><rect y="16" width="1" height="1"/><rect y="18" width="1" height="1"/><rect y="12" width="1" height="1"/><rect y="20" width="1" height="1"/><rect x="19" y="23" width="1" height="1"/><rect x="23" y="15" width="1" height="1"/><rect x="23" y="11" width="1" height="1"/><rect x="23" y="13" width="1" height="1"/><rect x="23" y="17" width="1" height="1"/><rect x="23" y="19" width="1" height="1"/><rect x="23" y="9" width="1" height="1"/><rect x="23" y="3" width="1" height="1"/><rect x="23" y="5" width="1" height="1"/><rect x="23" y="7" width="1" height="1"/><rect x="23" y="21" width="1" height="1"/><rect x="15" y="23" width="1" height="1"/><rect x="23" y="23" width="1" height="1"/><rect x="12" width="1" height="1"/><rect x="13" y="23" width="1" height="1"/><rect x="16" width="1" height="1"/><rect x="14" width="1" height="1"/><rect x="17" y="23" width="1" height="1"/><rect x="21" y="23" width="1" height="1"/><rect x="18" width="1" height="1"/><polygon points="22 0 22 1 23 1 23 2 24 2 24 0 22 0"/><rect x="20" width="1" height="1"/></svg>