<svg xmlns="http://www.w3.org/2000/svg" viewBox="0 0 24 24"><title>cobalt_icons</title><rect width="24" height="24" style="fill:none"/><path d="M12,0C7.23,0,3,3.78,3,8.44Q3,8.73,3,9a8.39,8.39,0,0,0,.8,3C6,17.34,12,21.5,12,21.5s6-4.16,8.17-9.46A8.39,8.39,0,0,0,21,9q0-.31,0-.6C21,3.78,16.77,0,12,0Zm0,12.25A3.75,3.75,0,1,1,15.75,8.5,3.75,3.75,0,0,1,12,12.25Z"/><path d="M14.25,21A19.84,19.84,0,0,1,12,23a18.18,18.18,0,0,1-2.25-2c-.93.27-.75.8-.75,1.4,0,.88,1.34,1.6,3,1.6s3-.72,3-1.6C15,21.8,15.18,21.27,14.25,21Z"/></svg>