<svg xmlns="http://www.w3.org/2000/svg" viewBox="0 0 24 24"><title>cobalt_icons</title><rect x="6" y="6" width="12" height="12" style="fill:#fff"/><polygon points="14 1 14 6 15 6 15 2 22 2 22 9 18 9 18 10 23 10 23 1 14 1" style="fill:#fff"/><polygon points="9 18 9 22 2 22 2 15 6 15 6 14 1 14 1 23 10 23 10 18 9 18" style="fill:#fff"/><polygon points="5 5 10 5 10 1 1 1 1 10 5 10 5 5" style="fill:#fff"/><polygon points="19 14 19 19 14 19 14 23 23 23 23 14 19 14" style="fill:#fff"/><rect width="24" height="24" style="fill:none;opacity:0.5"/><polygon points="6 6 10 6 10 2 2 2 2 10 6 10 6 6"/><polygon points="18 18 14 18 14 22 22 22 22 14 18 14 18 18"/><rect x="7" y="7" width="10" height="10"/><rect width="24" height="24" style="fill:none"/><path d="M20,4V9H15V4h5m2-2H13v9h9V2Z"/><path d="M9,15v5H4V15H9m2-2H2v9h9V13Z"/></svg>