<svg xmlns="http://www.w3.org/2000/svg" viewBox="0 0 24 24"><title>cobalt_icons</title><rect width="24" height="24" style="fill:none"/><rect width="24" height="24" style="fill:none"/><path d="M17,6V5.5a.45.45,0,0,0-.5-.5H16a1,1,0,0,0-1-1H14a1,1,0,0,0-1,1H10V1A.91.91,0,0,0,9,0,.91.91,0,0,0,8,1V5H7C6.68,5,6,6,6,6L5,7v3l1,1V22c0,1,1,1,1,1a1,1,0,0,0,1,1H15a1,1,0,0,0,1-1,1,1,0,0,0,1-1V11l1-1V7ZM8,19a4.42,4.42,0,0,1,.32-6.68L7.48,11H10v2.83L9,13a4,4,0,0,0,0,5,3.45,3.45,0,0,0,2.84,1l.25.93A5,5,0,0,1,8,19Zm7-7a4.43,4.43,0,0,1-.31,6.68L15.5,20H13V17.17L14,18a4,4,0,0,0,0-5,3.48,3.48,0,0,0-2.84-1L10.91,11A4.94,4.94,0,0,1,15,12Z" style="fill-rule:evenodd"/></svg>