<svg xmlns="http://www.w3.org/2000/svg" viewBox="0 0 24 24"><title>cobalt_icons</title><rect x="9" y="4" width="6" height="16"/><rect width="24" height="24" style="fill:none;opacity:0.75"/><path d="M16.14,2H7.86L2,7.86v8.28L7.86,22h8.28L22,16.14V7.86ZM13.38,19H10.63V17h2.75Zm.12-3.5h-3L10,5h4Z" style="fill:#ff7900"/><path d="M16.14,2,22,7.86v8.28L16.14,22H7.86L2,16.14V7.86L7.86,2h8.28m.42-1H7.44l-.29.29L1.29,7.15,1,7.44v9.12l.29.29,5.86,5.86.29.29h9.12l.29-.29,5.86-5.86.27-.29V7.44l-.27-.29L16.85,1.29,16.56,1Z" style="fill:#fff"/><path d="M15.94,2.5,21.5,8.06v7.88L15.94,21.5H8.06L2.5,15.94V8.06L8.06,2.5h7.88m.2-.5H7.86L2,7.86v8.28L7.86,22h8.28L22,16.14V7.86L16.14,2Z" style="fill:#fff;opacity:0.75"/></svg>