<svg xmlns="http://www.w3.org/2000/svg" viewBox="0 0 24 24"><title>cobalt_icons</title><rect x="6" y="2" width="2" height="4"/><rect x="16" y="2" width="2" height="4"/><rect width="24" height="24" style="fill:none;opacity:0.5"/><path d="M17,11a6,6,0,1,0,6,6A6,6,0,0,0,17,11Zm0,10.5A4.5,4.5,0,1,1,21.5,17,4.49,4.49,0,0,1,17,21.5Z"/><rect x="16.38" y="13.43" width="1.25" height="3.57"/><rect x="17" y="16.34" width="2.79" height="1.25"/><circle cx="17" cy="17" r="0.93"/><path d="M9,17v2H5V15H9v2a7.93,7.93,0,0,1,1-3.87V10h3.13a8,8,0,0,1,8.87.76V3H19V7H15V3H9V7H5V3H2V22h8.76A8,8,0,0,1,9,17ZM5,10H9v4H5Z" style="fill-rule:evenodd"/></svg>