<svg xmlns="http://www.w3.org/2000/svg" viewBox="0 0 24 24"><title>cobalt_icons</title><path d="M19.65,7.67l.85-1V4.21c0-1.53-3.27-3-3.27-3C17.23.19,16,0,16,0H15V3.93C15,4.24,14.27,5,14,5H10c-.31,0-1-.76-1-1.07V0H8S6.77.19,6.77,1.22c0,0-1.4,1.12-2,1.12A1.84,1.84,0,0,0,3.5,4.21V6.64l.85,1A2.4,2.4,0,0,1,5,9v3L4,13v2l1,1v6.5L6.36,24H17.64L19,22.5V16l1-1V13l-1-1V9A2.4,2.4,0,0,1,19.65,7.67ZM17,21.64a.36.36,0,0,1-.3.36H7.3a.36.36,0,0,1-.3-.36V6.36A.36.36,0,0,1,7.3,6h9.4a.36.36,0,0,1,.3.36Z"/><path d="M13.5,0h-.33c0,.29-.31.8-.57.8H11.4c-.26,0-.56-.51-.57-.8H10.5c-.26,0-.5.39-.5.68V3.46a.51.51,0,0,0,.47.54h3.06A.51.51,0,0,0,14,3.46V.68C14,.39,13.76,0,13.5,0ZM12,3.33c-.71,0-1.33-.44-1.33-1s.62-1,1.33-1,1.33.46,1.33,1S12.71,3.33,12,3.33Z"/></svg>