<svg xmlns="http://www.w3.org/2000/svg" viewBox="0 0 24 24"><title>cobalt_icons</title><rect width="24" height="24" style="fill:none"/><rect width="24" height="24" style="fill:none"/><polygon points="24 2.33 22.59 1 17.99 5.33 14.73 2.27 16 1 12 1 12 5 13.36 3.64 17.99 8 18.7 7.33 18.7 7.33 24 2.33" style="fill-rule:evenodd"/><rect x="5" y="13" width="1" height="4"/><path d="M16,23a1,1,0,0,0,1-1V10L13.5,7H11V5H10V1A.91.91,0,0,0,9,0,.91.91,0,0,0,8,1V5H7C6.68,5,6,6,6,6L5,7v3l1,1v1H7v6H6v4c0,1,1,1,1,1a1,1,0,0,0,1,1H15A1,1,0,0,0,16,23Zm-1-7H8V15h7Zm0-2H8V13h7Zm0-2H8V11h7Z" style="fill-rule:evenodd"/></svg>