<svg xmlns="http://www.w3.org/2000/svg" viewBox="0 0 24 24"><title>cobalt_icons</title><path d="M12,21.52A9.52,9.52,0,1,1,21.52,12,9.53,9.53,0,0,1,12,21.52Z" style="fill-rule:evenodd;opacity:0.5"/><path d="M12,2A10,10,0,1,0,22,12,10,10,0,0,0,12,2Zm0,18.4A8.4,8.4,0,1,1,20.4,12,8.4,8.4,0,0,1,12,20.4Z" style="fill:#fff"/><polygon points="15.5 10 12 14 8.5 10 10.5 10 10.5 6 13.5 6 13.5 10 15.5 10" style="fill:#fff"/><rect x="7" y="15" width="10" height="1" style="fill:#fff"/><rect width="24" height="24" style="fill:none"/></svg>