<svg xmlns="http://www.w3.org/2000/svg" viewBox="0 0 24 24"><title>cobalt_icons</title><path d="M16.73,2.81a7.33,7.33,0,0,0-9.46,0,6.33,6.33,0,0,0-.95,8.72A6.41,6.41,0,0,1,7.8,15.6a1.27,1.27,0,0,0,.41.94,1.47,1.47,0,0,0,1,.38h5.6a1.47,1.47,0,0,0,1-.38,1.31,1.31,0,0,0,.41-.94,6.36,6.36,0,0,1,1.48-4.06A6.34,6.34,0,0,0,16.73,2.81Zm-.23,7.8a7.94,7.94,0,0,0-1.8,4.81l-5.41,0A7.94,7.94,0,0,0,7.5,10.6a4.85,4.85,0,0,1,.75-6.66,5.85,5.85,0,0,1,7.5,0A4.86,4.86,0,0,1,16.5,10.61Z"/><rect x="8.49" y="18" width="7" height="1"/><rect x="8.49" y="20" width="7" height="1"/><rect x="10" y="22" width="4" height="1"/></svg>