<svg xmlns="http://www.w3.org/2000/svg" viewBox="0 0 24 24"><title>cobalt_icons</title><rect width="24" height="24" style="fill:none"/><path d="M12,2A10,10,0,0,0,2.46,9H4.59a8,8,0,1,1,1.76,8.65l.06-.07,1.86-1.86-5.58-.37.37,5.58,1.86-1.86h0A10,10,0,1,0,12,2Z"/><path d="M9.77,15H8.13V10.09A5.8,5.8,0,0,1,6,11.17V9.88a4.88,4.88,0,0,0,1.4-.69A2.77,2.77,0,0,0,8.44,8H9.77Z"/><path d="M14,7.71A2.49,2.49,0,0,1,16,8.48a4.38,4.38,0,0,1,.84,3,4.43,4.43,0,0,1-.84,3,2.52,2.52,0,0,1-1.95.76,2.59,2.59,0,0,1-2-.83,4.43,4.43,0,0,1-.77-3,4.41,4.41,0,0,1,.84-3A2.52,2.52,0,0,1,14,7.71Zm0,1.18a.88.88,0,0,0-.53.16,1.09,1.09,0,0,0-.37.59,7.24,7.24,0,0,0-.17,1.86,6.62,6.62,0,0,0,.16,1.8,1.22,1.22,0,0,0,.38.65,1,1,0,0,0,1.06,0,1.09,1.09,0,0,0,.37-.59,7.24,7.24,0,0,0,.17-1.86,6.48,6.48,0,0,0-.16-1.79,1.26,1.26,0,0,0-.38-.66A.88.88,0,0,0,14,8.89Z"/></svg>