<svg xmlns="http://www.w3.org/2000/svg" viewBox="0 0 24 24"><title>cobalt_icons</title><path d="M21.84,19.12a.78.78,0,0,0-.06-1L21.67,18h0l-4.51-3.23h0a.78.78,0,0,0-1,.07l-.07.09h0L16,15c-.3.43-.3.49-.54.86a17,17,0,0,0-1.15,2.34c-1.26-.19-3.15-1.29-5.21-3.36S6,10.92,5.78,9.65A17.16,17.16,0,0,0,8.12,8.51c.38-.25.43-.25.87-.55l0,0H9l.09-.07a.78.78,0,0,0,.08-1h0L6,2.34H6a.48.48,0,0,0-.09-.11.75.75,0,0,0-1-.06C2.72,3.65.77,5.27,1,7.2S3.76,13.81,7,17s7.77,5.68,9.83,5.95,3.55-1.7,5-3.86"/><rect width="24" height="24" style="fill:none"/></svg>