<svg xmlns="http://www.w3.org/2000/svg" viewBox="0 0 24 24"><title>cobalt_icons</title><path d="M20,18.05a9.85,9.85,0,1,0-.13.17H20ZM12,20.25a8.25,8.25,0,0,1-6.81-3.6c.16-.56,1-1.06,1.42-1.47S9,13,8.1,12.64C7.56,12.41,5.67,10.79,5,11.2a2.82,2.82,0,0,1-1,.23V13c.24.39,1,.64,1,1.14s-.24,1.08-.35,1.73A8.25,8.25,0,0,1,3.75,12,8.08,8.08,0,0,1,4,10H4a2.93,2.93,0,0,0,.69.4c0-.29-.44-.48-.62-.66a8.31,8.31,0,0,1,.32-1l.08,0c.33-.35.81-.35,1.15-.63s-.4-.63,0-.73C5.7,7.38,7,8.1,7,8s-.94-.82-1.46-1.13A8.23,8.23,0,0,1,18,6.33c-.42,0-.82-.13-.78-.41,0,0-2,.54-2.24.48s.47-.39.46-.36a.23.23,0,0,0-.17-.26h-.92a4.82,4.82,0,0,0-2.09.83c.2-.28.64.69.65.69s.75-1.1,1-.68-1.17.83-1.47.72-.57.4-.66.32c-.24-.24-.16-1-.28-1.08-.35-.2-.59.85-.63.92s1.07.44.63.65c-.11,0-1.12,0-1,.46.25.78,2-.86,2.29-.28.19.42,2-.13,2.4-.21-.37,1.43-1.9,1.11-3,.83a1.82,1.82,0,0,0-2.1,1.61c-.08,1.62,1.1.76,1.93,1.08s.79,4.62,2.18,3.48a2.86,2.86,0,0,0,1-2.18c0-.43,1.36-1.5,1.23-1.77s-.81.33-.85-.16c0-.3-.94-.94-.77-1.17s.62.64.62.63c.23.54.44.45,1,.32,1.18-.28.17-.64-.14-1s1.29.09,1.4.1c.68,0,.8,1.55,1.16,1.47A3.89,3.89,0,0,0,20,10.39V10a8.08,8.08,0,0,1,.25,2,8.24,8.24,0,0,1-1.34,4.5,4.85,4.85,0,0,1-1.15.64c-.45.16-.51.83-.42,1.08h.07A8.22,8.22,0,0,1,12,20.25Z"/><path d="M16.05,14.62c.41-.23.3-1.18.18-1.32C16,13.49,15.67,14.83,16.05,14.62Z"/><rect width="24" height="24" style="fill:none;opacity:0.75"/></svg>