<svg xmlns="http://www.w3.org/2000/svg" viewBox="0 0 24 24"><title>cobalt_icons</title><path d="M2,2V8H22V2ZM15.5,6.5H3.5v-3h12Zm4.92.5H17.58A.58.58,0,0,1,17,6.42V3.58A.58.58,0,0,1,17.58,3h2.84a.58.58,0,0,1,.58.58V6.42A.58.58,0,0,1,20.42,7Z"/><path d="M2,9v6H22V9Zm13.5,4.5H3.5v-3h12Zm4.92.5H17.58a.58.58,0,0,1-.58-.58V10.58a.58.58,0,0,1,.58-.58h2.84a.58.58,0,0,1,.58.58v2.84A.58.58,0,0,1,20.42,14Z"/><path d="M2,16v6H22V16Zm13.5,4.5H3.5v-3h12Zm4.92.5H17.58a.58.58,0,0,1-.58-.58V17.58a.58.58,0,0,1,.58-.58h2.84a.58.58,0,0,1,.58.58v2.84A.58.58,0,0,1,20.42,21Z"/><rect width="24" height="24" style="fill:none"/><path d="M2,2V8H22V2ZM15.5,6.5H3.5v-3h12Zm4.92.5H17.58A.58.58,0,0,1,17,6.42V3.58A.58.58,0,0,1,17.58,3h2.84a.58.58,0,0,1,.58.58V6.42A.58.58,0,0,1,20.42,7Z"/><path d="M2,9v6H22V9Zm13.5,4.5H3.5v-3h12Zm4.92.5H17.58a.58.58,0,0,1-.58-.58V10.58a.58.58,0,0,1,.58-.58h2.84a.58.58,0,0,1,.58.58v2.84A.58.58,0,0,1,20.42,14Z"/><path d="M2,16v6H22V16Zm13.5,4.5H3.5v-3h12Zm4.92.5H17.58a.58.58,0,0,1-.58-.58V17.58a.58.58,0,0,1,.58-.58h2.84a.58.58,0,0,1,.58.58v2.84A.58.58,0,0,1,20.42,21Z"/><rect width="24" height="24" style="fill:none"/></svg>