<svg xmlns="http://www.w3.org/2000/svg" viewBox="0 0 24 24"><title>cobalt_icons</title><rect y="0.01" width="24" height="24" style="fill:none"/><rect x="19" y="15.01" width="2" height="1.99"/><rect x="3" y="15.01" width="2" height="1.99"/><rect x="19" y="12.01" width="2" height="1.99"/><rect x="3" y="12.01" width="2" height="1.99"/><rect x="11" y="9.01" width="2" height="1.99"/><rect x="14" y="9.01" width="2" height="1.99"/><rect x="8" y="9.01" width="2" height="1.99"/><polygon points="19 7 17 7 17 9.01 17 9.96 17 11 21 11 21 9.01 19 9.01 19 7"/><polygon points="5 7 5 9.01 3 9.01 3 11 7 11 7 9.96 7 9.01 7 7 5 7"/><path d="M7.14,5a3.25,3.25,0,0,1,1-2H7V1.18A5.24,5.24,0,0,0,5.1,5Z"/><path d="M18.9,5A5.39,5.39,0,0,0,17,1.22V3H15.87a3.2,3.2,0,0,1,1,2Z"/><rect x="19" y="18.01" width="2" height="1.99"/><rect x="3" y="18.01" width="2" height="1.99"/><polygon points="5 21 3 21 3 24 5 24 7 24 7 22.01 5 22.01 5 21"/><rect x="8" y="22.01" width="2" height="1.99"/><rect x="11" y="22.01" width="2" height="1.99"/><rect x="14" y="22.01" width="2" height="1.99"/><polygon points="19 21 19 22.01 17 22.01 17 24 20 24 21 24 21 21 19 21"/><path d="M11,16.73V19h2V16.73a2,2,0,1,0-2,0Z"/><path d="M11,2V0h0A8,8,0,0,0,7.32,1H9V2.45A6.06,6.06,0,0,1,11,2Z"/><path d="M13,0h0V2a6.34,6.34,0,0,1,2,.43V1h1.62A7.89,7.89,0,0,0,13,0Z"/></svg>