<svg xmlns="http://www.w3.org/2000/svg" viewBox="0 0 24 24"><title>cobalt_icons</title><path d="M21,4V16.08l1.22,1.49A3.44,3.44,0,0,0,23,16V4a2,2,0,0,0-2-2H6.22l2,2Z"/><path d="M18.46,7.59C18.48,6.44,16.89,6,16,6A3.82,3.82,0,0,0,12.5,8.28l6.32,6.32a4,4,0,0,0,.78-2.38l.21-2.4a3.43,3.43,0,0,0-.27-1.49A1.22,1.22,0,0,0,18.46,7.59Z"/><path d="M23.3,21.91,23,21.58c0-.28,0-.53,0-.72l-.34.34L19,17.58h0L5.39,4h0l-2-2h0L2.09.7.68,2.11l.71.71A2,2,0,0,0,1,4V16c0,1,0,2,2,2H8.13l2.37-1.09V15H3V4.43L16.55,18l-.55.76-1.14-1.58h0c-2.4.32-4.88,1.55-5.58,2.77a1.2,1.2,0,0,0-.19.52s0,.24,0,.54H5v1H20.57l1.32,1.32Z"/></svg>