<svg xmlns="http://www.w3.org/2000/svg" viewBox="0 0 24 24"><title>cobalt_icons</title><path d="M10.5,17.5A6.94,6.94,0,0,1,12,13.18V6H2V22H12v-.18A6.94,6.94,0,0,1,10.5,17.5ZM6,18H4V16H6Zm0-4H4V12H6Zm0-4H4V8H6Zm4,8H8V16h2Zm0-4H8V12h2Zm0-4H8V8h2Z"/><path d="M10.5,17.5A7,7,0,0,1,20,11V2H10V22h1.6C10.6,21,10.5,19.21,10.5,17.5ZM16,4h2V6H16Zm0,4h2v2H16ZM12,4h2V6H12Zm0,4h2v2H12Z"/><path d="M18,16.36c.6,0,1.09-.36,1.09-.81s-.49-.82-1.09-.82-1.09.36-1.09.82S17.4,16.36,18,16.36Z"/><path d="M18,12a6,6,0,1,0,6,6A6,6,0,0,0,18,12Zm0,11a5,5,0,1,1,5-5A5,5,0,0,1,18,23Z"/><polygon points="19 17 18 17 17 17 16 17 16 18 17 18 17 20 16.36 20 16.36 21 17 21 19 21 19.64 21 19.64 20 19 20 19 17"/></svg>