<svg xmlns="http://www.w3.org/2000/svg" viewBox="0 0 24 24"><title>cobalt_icons</title><rect width="24" height="24" style="fill:none;opacity:0.5"/><path d="M10.5,17.54v-4a2.17,2.17,0,0,1,1-1.84c0-1.55.32-5.2,5.5-5.2,2.46,0,4.08.85,4.89,2.5H22V2H14.38l1.79,1.79L12,8,7.83,3.79,9.62,2H2V9.62L3.79,7.83,8,12,3.79,16.17,2,14.38V22H9.62L7.83,20.21Z"/><path d="M14.22,12.08c0-1.75.29-2.91,2.78-2.91s2.78,1.08,2.78,2.91V13H14.22ZM17,8c-3.17,0-4,1.48-4,4v1h-.72c-.16,0-.28.38-.28.54V21.7a.3.3,0,0,0,.29.3h9.42a.31.31,0,0,0,.29-.3V13.48c0-.14-.13-.48-.29-.48H21V12c0-2.48-.9-4-4-4Z"/></svg>