<svg xmlns="http://www.w3.org/2000/svg" viewBox="0 0 24 24"><title>cobalt_icons</title><path d="M21,2H3A2,2,0,0,0,1,4V16c0,1,0,2,2,2H8.13l2.37-1.09V15H3V4H21V16.08l1.22,1.49A3.44,3.44,0,0,0,23,16V4A2,2,0,0,0,21,2Z"/><path d="M22.73,19.94c-.7-1.22-3.18-2.45-5.58-2.77h0L16,18.75l-1.14-1.58h0c-2.4.32-4.88,1.55-5.58,2.77a1.2,1.2,0,0,0-.19.52s0,.24,0,.54H5v1H23c-.05-.82-.08-1.46-.08-1.54A1.2,1.2,0,0,0,22.73,19.94Z"/><path d="M16,16a3.61,3.61,0,0,0,3.61-3.78l.21-2.4a3.43,3.43,0,0,0-.27-1.49,1.22,1.22,0,0,0-1.08-.74C18.48,6.44,16.89,6,16,6a3.82,3.82,0,0,0-3.82,3.82l.22,2.4A3.6,3.6,0,0,0,16,16Z"/></svg>