<svg xmlns="http://www.w3.org/2000/svg" viewBox="0 0 24 24"><title>cobalt_icons</title><polygon points="19 2 19 3 7.22 3 8.22 4 19 4 19 5 20 5 20 15.78 21 16.78 21 5 22 5 22 2 19 2"/><path d="M14.06,9.84l2.72,2.72a4.71,4.71,0,0,0,.45-1.7c0-.12,0-.24,0-.36A5.17,5.17,0,0,0,12,5.58a5.52,5.52,0,0,0-1.86.34L12.7,8.48A2.19,2.19,0,0,1,14.06,9.84Z"/><path d="M15.77,14.38l-2.26-2.26h0L10.42,9h0l-2-2h0L3.5,2.11,2.09,3.53l.91.9V19H2v3H5V21H19.56l.91.91,1.42-1.41-6.12-6.12ZM18.56,20H5V19H4V5.43L7.17,8.61a4.47,4.47,0,0,0-.42,1.89c0,.12,0,.24,0,.36a4.74,4.74,0,0,0,.47,1.75C8.5,15.7,12,18.12,12,18.12a17.49,17.49,0,0,0,2.49-2.19Z"/></svg>