<svg xmlns="http://www.w3.org/2000/svg" viewBox="0 0 24 24"><title>cobalt_icons</title><path d="M18.67,5.89l-1.23.82a9.2,9.2,0,0,1-.23,10.91l1.26.73a10.75,10.75,0,0,0,.2-12.46Z" style="fill:none"/><path d="M16.23,7.51,15,8.32a6.16,6.16,0,0,1-.38,7.8l1.29.76a7.68,7.68,0,0,0,.3-9.37Z" style="fill:none"/><path d="M19.89,5.08l-1.22.81a10.75,10.75,0,0,1-.2,12.46l1.26.74a12.3,12.3,0,0,0,.16-14Z"/><path d="M17.44,6.71l-1.21.8a7.68,7.68,0,0,1-.3,9.37l1.28.74a9.2,9.2,0,0,0,.23-10.91Z"/><path d="M15,8.32l-1.24.82a4.55,4.55,0,0,1-.46,6.21l1.32.77A6.16,6.16,0,0,0,15,8.32Z"/><path d="M10.56,12a10.66,10.66,0,0,1-3.62,8.05L8.11,21A12.18,12.18,0,0,0,12,12,12.18,12.18,0,0,0,8.11,3L6.94,4A10.66,10.66,0,0,1,10.56,12Z"/><path d="M7.68,12a7.59,7.59,0,0,1-3.14,6.18l1.21.94A9.14,9.14,0,0,0,9.12,12,9.14,9.14,0,0,0,5.75,4.88l-1.21.94A7.59,7.59,0,0,1,7.68,12Z"/><path d="M4.79,12A4.47,4.47,0,0,1,2,16.19l1.31,1a6.13,6.13,0,0,0,0-10.44L2,7.81A4.47,4.47,0,0,1,4.79,12Z"/><rect width="24" height="24" style="fill:none"/></svg>