<svg xmlns="http://www.w3.org/2000/svg" viewBox="0 0 24 24"><title>cobalt_icons</title><rect y="7" width="4" height="2"/><rect x="10" y="7" width="4" height="2"/><rect x="15" y="7" width="4" height="2"/><rect x="20" y="7" width="4" height="2"/><rect x="5" y="7" width="4" height="2"/><rect width="24" height="24" style="fill:none"/><rect y="10" width="6" height="2"/><rect x="17" y="10" width="7" height="2"/><rect x="7" y="10" width="4" height="2"/><rect x="12" y="10" width="4" height="2"/><rect y="13" width="4" height="2"/><rect x="10" y="13" width="4" height="2"/><rect x="15" y="13" width="4" height="2"/><rect x="20" y="13" width="4" height="2"/><rect x="5" y="13" width="4" height="2"/><rect y="16" width="4" height="2"/><rect x="20" y="16" width="4" height="2"/><rect x="5" y="16" width="14" height="2"/></svg>