<svg xmlns="http://www.w3.org/2000/svg" viewBox="0 0 24 24"><title>cobalt_icons</title><path d="M14.06,17.57a4.93,4.93,0,0,1,.87-.29c0-.08,0-.13.07-.14V11l1-1V7L15,6V5.5a.45.45,0,0,0-.5-.5H14a1,1,0,0,0-1-1H12a1,1,0,0,0-1,1H8V1C8,.36,7.64.25,7,.25S6,.36,6,1V5H5C4.68,5,4,6,4,6L3,7v3l1,1v1H5v6H4v4c0,1,1,1,1,1a1,1,0,0,0,1,1h6.08a2.59,2.59,0,0,1-.52-1.29A4.46,4.46,0,0,1,14.06,17.57ZM6,11h7v1H6Zm0,2h7v1H6Zm0,3V15h7v1Z"/><rect x="3" y="13" width="1" height="4"/><path d="M16,14v5.1a2,2,0,0,0-1.49.11,2.45,2.45,0,0,0-1.45,2.68,1.65,1.65,0,0,0,2.43.9A2.63,2.63,0,0,0,17,21l0,0V16.32l4-2.71v4.07a2,2,0,0,0-1.49.11,2.46,2.46,0,0,0-1.45,2.69,1.65,1.65,0,0,0,2.43.89A2.52,2.52,0,0,0,22,19h0V10Z"/><rect width="24" height="24" style="fill:none"/></svg>