<svg xmlns="http://www.w3.org/2000/svg" viewBox="0 0 24 24"><title>cobalt_icons</title><rect width="24" height="24" style="fill:none"/><rect width="24" height="24" style="fill:none"/><path d="M17,0a6,6,0,1,0,6,6A6,6,0,0,0,17,0Zm1,10H16V8h2Zm0-3H16V2h2Z"/><rect x="5" y="13" width="1" height="4"/><path d="M16,23a1,1,0,0,0,1-1V13.45c-.35,0-.68.05-1,.05a5.56,5.56,0,0,1-1-.1V14H8V13h5.71a6.87,6.87,0,0,1-1.63-1H8V11h3.06A6.31,6.31,0,0,1,9.5,7,10,10,0,0,1,10,3.89V1A.91.91,0,0,0,9,0,.91.91,0,0,0,8,1V5H7C6.68,5,6,6,6,6L5,7v3l1,1v1H7v6H6v4c0,1,1,1,1,1a1,1,0,0,0,1,1H15A1,1,0,0,0,16,23Zm-1-7H8V15h7Z"/></svg>