<svg xmlns="http://www.w3.org/2000/svg" viewBox="0 0 24 24"><title>cobalt_icons</title><rect width="24" height="24" style="fill:none"/><path d="M20,9H19V6.78C19,2.54,17.57,0,12,0S5,2.54,5,6.78V9H4c-1,0-1,.72-1,1V23c0,1,.71,1,1,1H20a1,1,0,0,0,1-1V10A.89.89,0,0,0,20,9ZM7,7c0-3,.52-5,5-5s5,1.86,5,5V9H7Zm5,16.25a6.75,6.75,0,1,1,6.75-6.75A6.75,6.75,0,0,1,12,23.25Z" style="opacity:0.6000000000000001"/><path d="M12,11.5a5,5,0,1,0,5,5A5,5,0,0,0,12,11.5Zm3,6.82-1.22,1.22L12,17.71l-1.82,1.83L9,18.32l1.83-1.82L9,14.68l1.22-1.22L12,15.29l1.82-1.83L15,14.68,13.21,16.5Z"/></svg>