<svg xmlns="http://www.w3.org/2000/svg" viewBox="0 0 24 24"><title>cobalt_icons</title><rect width="24" height="24" style="fill:none"/><rect x="8" y="11" width="2" height="2"/><rect x="11" y="11" width="2" height="2"/><rect x="14" y="11" width="2" height="2"/><rect x="17" y="11" width="2" height="2"/><path d="M16,6V9H8V6h8m1-1H7v5H17V5Z"/><rect x="5" y="11" width="2" height="2"/><rect x="5" y="18" width="6" height="1"/><rect x="5" y="16" width="6" height="1"/><rect x="5" y="14" width="6" height="1"/><rect x="13" y="18" width="6" height="1"/><rect x="13" y="16" width="6" height="1"/><rect x="13" y="14" width="6" height="1"/><path d="M19,3H5A2,2,0,0,0,3,5V19a2,2,0,0,0,2,2H19a2,2,0,0,0,2-2V5A2,2,0,0,0,19,3Zm1,16a1,1,0,0,1-1,1H5a1,1,0,0,1-1-1V5A1,1,0,0,1,5,4H19a1,1,0,0,1,1,1Z"/></svg>