<svg xmlns="http://www.w3.org/2000/svg" viewBox="0 0 24 24"><title>cobalt_icons</title><rect width="24" height="24" style="fill:none"/><path d="M12,1A11,11,0,1,0,23,12,11,11,0,0,0,12,1Zm0,20.5A9.5,9.5,0,1,1,21.5,12,9.5,9.5,0,0,1,12,21.5Z"/><path d="M19.09,10.56c-.37-.07-2-.27-2-.27L15,8H13.64l-.27-.77H12.29L12,8H10.5L7.69,10.43s-2.44.23-2.64.34-.55.36-.55.64v2.23H6A1.61,1.61,0,0,0,7.5,15,1.61,1.61,0,0,0,9,13.64h6A1.61,1.61,0,0,0,16.5,15,1.6,1.6,0,0,0,18,13.64h1.5v-2C19.5,11.4,19.45,10.63,19.09,10.56ZM7.5,14.33a.76.76,0,1,1,.75-.76A.75.75,0,0,1,7.5,14.33ZM12,11H9l2-2h1Zm1,0V9h1l1,2Zm3.5,3.34a.77.77,0,0,1,0-1.53.77.77,0,0,1,0,1.53Z"/></svg>