<svg xmlns="http://www.w3.org/2000/svg" viewBox="0 0 24 24"><title>cobalt_icons</title><path d="M22.82,7.66c-.19-.31-.68-.46-1.65-.46-1.31,0-1.35.23-1.47.37a.65.65,0,0,0-.16.25l-1.2-3.07a1.29,1.29,0,0,0-1-.61c-.2,0-2.71-.14-4.92-.14h-.82c-2.21,0-4.72.13-4.92.14a1.29,1.29,0,0,0-1,.61L4.46,7.82a.65.65,0,0,0-.16-.25c-.12-.14-.16-.37-1.47-.37-1,0-1.46.15-1.65.46a2.51,2.51,0,0,0,0,1.92c.14.19.23.31,2.1.68l0,.05-.91,1.45A5.76,5.76,0,0,0,2,13.53v4c0-.12.33.52.38.61v.46c0,1.06.76,1.37,1.83,1.37H5.58c1,0,1.25-1.06,1.38-2H17c.13.94.4,2,1.38,2h1.37c1.07,0,1.83-.31,1.83-1.37v-.46c.05-.09.38-.73.38-.61v-4a5.76,5.76,0,0,0-.38-1.77l-.91-1.45,0-.05c1.87-.37,2-.49,2.1-.68A2.51,2.51,0,0,0,22.82,7.66ZM9,13.87c0,.2-.46.46-.92.46H4.41c-.43,0-.91,0-.91-.17A3.1,3.1,0,0,1,4,12.9c.13-.21.25-.42.45-.4l3.67.23c.21,0,.88.27.92.48ZM5.12,9.5,7,5H17l1.88,4.5Zm14.47,4.83H15.92c-.46,0-1-.26-.92-.46v-.66c0-.21.71-.46.92-.48l3.67-.23c.2,0,.32.19.45.4a3.1,3.1,0,0,1,.46,1.26C20.5,14.35,20,14.33,19.59,14.33Z"/></svg>