<svg xmlns="http://www.w3.org/2000/svg" viewBox="0 0 24 24"><title>cobalt_icons</title><rect width="24" height="24" style="fill:none;opacity:0.75"/><path d="M1.53,6.15l1,1A10.62,10.62,0,0,1,6.68,2.81l-1-1A12,12,0,0,0,1.53,6.15Z"/><path d="M22.43,6.15l-1,1a10.58,10.58,0,0,0-4.14-4.35l1-1A12,12,0,0,1,22.43,6.15Z"/><path d="M12.81,12a.79.79,0,0,0-.44-.7h0l-.16-.13h0L9.5,8.9l-.58.58,2.31,2.77.36,5.48h.82l.37-5.57h0A.76.76,0,0,0,12.81,12Z"/><rect width="24" height="24" style="fill:none;opacity:0.75"/><path d="M21,12A9,9,0,1,0,6.25,18.93L4.77,21.5l1.73,1L7.93,20a8.94,8.94,0,0,0,8.14,0L17.5,22.5l1.73-1-1.48-2.57A9,9,0,0,0,21,12ZM7.64,18.1A7.5,7.5,0,1,1,18.1,16.36,7.49,7.49,0,0,1,7.64,18.1Z"/><rect width="1" height="1"/><rect x="23" y="23" width="1" height="1"/></svg>