<svg xmlns="http://www.w3.org/2000/svg" viewBox="0 0 24 24"><title>cobalt_icons</title><rect width="24" height="24" transform="translate(24 0) rotate(90)" style="fill:none"/><path d="M17.5,20.34a4.11,4.11,0,0,1-1.42-.25V24h2.84V20.09A4.11,4.11,0,0,1,17.5,20.34Z"/><path d="M17.5,14.66a4.11,4.11,0,0,1,1.42.25V11H16.08v3.91A4.11,4.11,0,0,1,17.5,14.66Z"/><path d="M15,18.92a3.72,3.72,0,0,1-.49-1.32l-3.48,2,1.42,2.38,3.48-2A3.72,3.72,0,0,1,15,18.92Z"/><path d="M20,16.08a3.72,3.72,0,0,1,.49,1.32l3.48-2-1.42-2.38L19.1,15A3.72,3.72,0,0,1,20,16.08Z"/><path d="M15,16.08A3.72,3.72,0,0,1,15.9,15l-3.48-1.95L11,15.44l3.48,2A3.72,3.72,0,0,1,15,16.08Z"/><path d="M20,18.92A3.72,3.72,0,0,1,19.1,20l3.48,2L24,19.56l-3.48-2A3.72,3.72,0,0,1,20,18.92Z"/><path d="M17.5,12.18A5.32,5.32,0,1,0,23,17.5,5.4,5.4,0,0,0,17.5,12.18Zm0,8a2.7,2.7,0,1,1,2.77-2.7A2.74,2.74,0,0,1,17.5,20.2Z"/><path d="M3.5,23A3.49,3.49,0,0,0,7,20H9.39A8.31,8.31,0,0,1,9,18H6.42L12,8l1.21,2.17A8.38,8.38,0,0,1,15,9.37l-1.1-2a3.5,3.5,0,1,0-3.84,0l-5,9A3.43,3.43,0,0,0,3.5,16a3.5,3.5,0,0,0,0,7Z" style="opacity:0.65"/></svg>