<svg xmlns="http://www.w3.org/2000/svg" viewBox="0 0 24 24"><title>cobalt_icons</title><path d="M21.5,2.5v19H2.5V2.5h19M23,1H1V23H23V1Z"/><path d="M4,11V4L9,7.5Z"/><rect x="13" y="4" width="1" height="7"/><rect x="15" y="5" width="1" height="5"/><rect x="17" y="4" width="1" height="7"/><rect x="19" y="5" width="1" height="5"/><rect x="11" y="5" width="1" height="5"/><path d="M4,20V13l5,3.5Z"/><rect x="13" y="13" width="1" height="7"/><rect x="15" y="14" width="1" height="5"/><rect x="17" y="13" width="1" height="7"/><rect x="19" y="14" width="1" height="5"/><rect x="11" y="14" width="1" height="5"/></svg>