<svg xmlns="http://www.w3.org/2000/svg" viewBox="0 0 24 24"><title>cobalt_icons</title><path d="M12,2A10,10,0,1,0,22,12,10,10,0,0,0,12,2Zm0,16.75a1.35,1.35,0,1,1,1.26-1.35A1.3,1.3,0,0,1,12,18.75ZM15.67,16a.57.57,0,0,1-1,.11A3.66,3.66,0,0,0,12,14.72,3.68,3.68,0,0,0,9.29,16.1a.57.57,0,0,1-1-.1,1.16,1.16,0,0,1,.08-1.29A4.87,4.87,0,0,1,12,12.87a4.87,4.87,0,0,1,3.59,1.84,1.12,1.12,0,0,1,.24.7A1.18,1.18,0,0,1,15.67,16Zm2.08-2.21a.58.58,0,0,1-1,.11A6.41,6.41,0,0,0,12,11.59a6.38,6.38,0,0,0-4.78,2.32.58.58,0,0,1-1-.12,1.13,1.13,0,0,1,.08-1.29A7.62,7.62,0,0,1,12,9.75a7.63,7.63,0,0,1,5.67,2.74,1.11,1.11,0,0,1,.24.71A1.09,1.09,0,0,1,17.75,13.79Zm1.12-2A9.16,9.16,0,0,0,12,8.38,9.16,9.16,0,0,0,5.13,11.8a.57.57,0,0,1-1-.12,1.2,1.2,0,0,1,.08-1.32A10.36,10.36,0,0,1,12,6.5a10.36,10.36,0,0,1,7.76,3.87,1.09,1.09,0,0,1,.24.71,1.16,1.16,0,0,1-.16.61A.58.58,0,0,1,18.87,11.8Z"/><rect width="24" height="24" style="fill:none;opacity:0.75"/></svg>