<svg xmlns="http://www.w3.org/2000/svg" viewBox="0 0 24 24"><title>cobalt_icons</title><rect width="24" height="24" style="fill:none;opacity:0.5"/><path d="M12,11.75A3.44,3.44,0,0,0,15.3,8.11l.2-2.26a3.39,3.39,0,0,0-.25-1.41,1.14,1.14,0,0,0-1-.69c0-1.09-1.45-1.5-2.28-1.5A3.52,3.52,0,0,0,8.5,5.85l.15,2.26A3.44,3.44,0,0,0,12,11.75Z" style="fill:#007aaa"/><path d="M19.29,16.84A7.73,7.73,0,0,0,19,15.76,6.18,6.18,0,0,0,14.5,13L12,15l0,0,0,0L9.5,13A6.18,6.18,0,0,0,5,15.76a7.73,7.73,0,0,0-.25,1.08c0,.08-.17,4.16-.21,5.16h15C19.46,21,19.29,16.92,19.29,16.84Z" style="fill:#007aaa"/></svg>