<svg xmlns="http://www.w3.org/2000/svg" viewBox="0 0 24 24"><title>cobalt_icons</title><path d="M17,11a6,6,0,1,0,6,6A6,6,0,0,0,17,11Zm0,10.5A4.5,4.5,0,1,1,21.5,17,4.56,4.56,0,0,1,17,21.5ZM19,17a2,2,0,1,1-2-2A2,2,0,0,1,19,17Z"/><path d="M10,12,3,19.13l.87.87L8,15.82C8.09,15.08,9.79,12.68,10,12Z"/><path d="M8.16,14.84a8.35,8.35,0,0,1,.36-1.39L3.87,8.13,3,9l5.13,5.87Z"/><path d="M10.46,10.2,3.6,3.34V5.07l6.09,6.09A7.9,7.9,0,0,1,10.46,10.2Z"/><path d="M8.69,20H4V4H20V9a8.91,8.91,0,0,1,2,.87V2H2V22H9.8A9.29,9.29,0,0,1,8.69,20Z"/></svg>