<svg id="Layer_1" data-name="Layer 1" xmlns="http://www.w3.org/2000/svg" viewBox="0 0 24 24">
  <defs>
    <style>.cls-1{fill:none;}</style>
  </defs>
  <title>ic_attachment_location</title>
  <g id="_Group_" data-name="&lt;Group&gt;">
    <rect id="_Rectangle_" data-name="&lt;Rectangle&gt;" class="cls-1" width="24" height="24"/>
    <g id="_Group_2" data-name="&lt;Group&gt;">
      <path id="_Compound_Path_" data-name="&lt;Compound Path&gt;" d="M2,2V22H22V2ZM20.5,20.5H3.5V3.5h17Z"/>
      <path id="_Compound_Path_2" data-name="&lt;Compound Path&gt;"
            d="M4.46,17.93c-.63-.91.78-1.72,1.47-2.36.38-.35,2.68-2.43,1.68-2.85C7,12.46,4.87,10.64,4.16,11.1a2.84,2.84,0,0,1-1.11.25v1.73c.28.44,1.13.72,1.12,1.28C4.17,15.27,3,17.75,4.46,17.93ZM4.82,7.65c.23-.19-.45-.72,0-.83.1,0,1.55.8,1.56.69,0-.34-1.6-1.26-1.94-1.45-1.15-.62-.88.37-1.43.83V8.61c0-.08.44-.17.53-.26C3.9,8,4.44,8,4.82,7.65ZM16.56,15c.46-.26.33-1.34.2-1.49C16.52,13.68,16.13,15.18,16.56,15Zm-4.44-3.36c1,.37.9,5.21,2.46,3.92a3.16,3.16,0,0,0,1.11-2.45c0-.48,1.53-1.69,1.38-2s-.91.37-.95-.19c0-.33-1.07-1.05-.87-1.31s.7.73.7.71c.26.61.49.5,1.06.36,1.33-.32.19-.72-.15-1.15-.45-.58,1.45.11,1.58.11.76,0,.89,1.75,1.3,1.66A4.53,4.53,0,0,0,21,10.19V5.6l-1.22,0c-.33,0-2,.15-1.93-.46,0-.06-2.28.6-2.52.54s.53-.44.52-.41A.27.27,0,0,0,15.66,5h-1a5.53,5.53,0,0,0-2.36.93c.23-.31.72.78.73.78s.85-1.23,1.15-.76-1.32.94-1.66.81-.64.44-.73.36c-.28-.27-.19-1.14-.32-1.22-.39-.22-.66,1-.71,1s1.21.49.71.73c-.13.06-1.27,0-1.09.51.29.89,2.29-1,2.58-.31.21.47,2.3-.15,2.7-.24-.41,1.61-2.14,1.26-3.32.93A2.06,2.06,0,0,0,10,10.38C9.86,12.2,11.19,11.23,12.12,11.59Zm6.36,6.19c-.5.19-.57.93-.48,1.22H21V16.19A11,11,0,0,1,18.48,17.78ZM3.77,10.22c0-.36-.61-.58-.77-.8v.35A3.86,3.86,0,0,0,3.77,10.22Z"/>
    </g>
  </g>
</svg>
