<svg id="Layer_1" data-name="Layer 1" xmlns="http://www.w3.org/2000/svg" viewBox="0 0 24 24">
  <defs>
    <style>.cls-1{fill:none;}</style>
  </defs>
  <title>ic_audio_speaker_mute</title>
  <g id="_Group_" data-name="&lt;Group&gt;">
    <path id="_Compound_Path_" data-name="&lt;Compound Path&gt;" class="cls-1" d="M0,0V24H24V0Z"/>
  </g>
  <path id="_Compound_Path_2" data-name="&lt;Compound Path&gt;" class="cls-1" d="M0,0V24H24V0Z"/>
  <g id="_Group_2" data-name="&lt;Group&gt;">
    <path id="_Compound_Path_3" data-name="&lt;Compound Path&gt;" class="cls-1" d="M0,0V24H24V0Z"/>
    <polygon points="14 2 13 2 8.61 6.39 14 11.78 14 2"/>
    <polygon
      points="19.18 19.79 14 14.61 14 14.61 7.2 7.8 7.2 7.8 2.21 2.82 0.8 4.23 4.57 8 3.5 8 2 9.5 2 14.5 3.5 16 7 16 13 22 14 22 14 17.43 17.77 21.2 19.18 19.79"/>
  </g>
</svg>
