<svg id="Layer_1" data-name="Layer 1" xmlns="http://www.w3.org/2000/svg" viewBox="0 0 24 24">
  <defs>
    <style>.cls-1{fill-rule:evenodd;}.cls-2{fill:none;}</style>
  </defs>
  <title>ic_audio_handset</title>
  <g id="_Group_" data-name="&lt;Group&gt;">
    <g id="_Group_2" data-name="&lt;Group&gt;">
      <path id="_Compound_Path_" data-name="&lt;Compound Path&gt;"
            d="M21.84,19.12a.78.78,0,0,0-.06-1L21.67,18h0l-4.51-3.23h0a.78.78,0,0,0-1,.07l-.07.09h0L16,15c-.3.43-.3.49-.54.86a17,17,0,0,0-1.15,2.34c-1.26-.19-3.15-1.29-5.21-3.36S6,10.92,5.78,9.65A17.16,17.16,0,0,0,8.12,8.51c.38-.25.43-.25.87-.55l0,0H9l.09-.07a.78.78,0,0,0,.08-1h0L6,2.34H6a.48.48,0,0,0-.09-.11.75.75,0,0,0-1-.06C2.72,3.65.77,5.27,1,7.2S3.76,13.81,7,17s7.77,5.68,9.83,5.95,3.55-1.7,5-3.86"/>
    </g>
    <g id="_Group_3" data-name="&lt;Group&gt;">
      <path class="cls-1"
            d="M18.37,5.58a19.28,19.28,0,0,0-6.12-4.13L12,2.69A17.22,17.22,0,0,1,21.26,12l1.24-.3A19.28,19.28,0,0,0,18.37,5.58ZM13,4.92l-.36,1.24A10.7,10.7,0,0,1,15.8,8.27a11,11,0,0,1,2.13,3.16L19,11a11.48,11.48,0,0,0-2.46-3.55A11.78,11.78,0,0,0,13,4.92ZM13.15,8l-.23,1a4.17,4.17,0,0,1,2.13,2.13l.94-.3A5.49,5.49,0,0,0,13.15,8Z"/>
    </g>
    <rect id="_Rectangle_" data-name="&lt;Rectangle&gt;" class="cls-2" width="24" height="24"/>
  </g>
</svg>
