<svg id="Layer_1" data-name="Layer 1" xmlns="http://www.w3.org/2000/svg" viewBox="0 0 24 24">
  <defs>
    <style>.cls-1{fill:none;opacity:0.75;}</style>
  </defs>
  <title>ic_audio_headset</title>
  <g id="_Group_" data-name="&lt;Group&gt;">
    <rect id="_Path_" data-name="&lt;Path&gt;" class="cls-1" width="24" height="24"/>
    <rect x="15" y="10" width="3.5" height="9" rx="1.5" ry="1.5"/>
    <rect x="5.5" y="10" width="3.5" height="9" rx="1.5" ry="1.5"/>
    <path
      d="M22,11.55h0A10.36,10.36,0,0,0,18.74,4c.09-.08.18-.14.26-.22a10.28,10.28,0,0,0-14,0c.08.08.17.14.26.22A10.36,10.36,0,0,0,2,11.55H2V14l1,1a1.9,1.9,0,0,0,1.87,2H5V12H4.88C4,12,3.25,13.07,3.05,14.25v-2.2a9.55,9.55,0,0,1,3-7.44c.2.14.39.28.59.4A8.07,8.07,0,0,1,17.33,5c.2-.12.39-.26.59-.4a9.55,9.55,0,0,1,3,7.44v2.2C20.75,13.07,20,12,19.12,12H19v9H16a1,1,0,0,0-1-1H12a1,1,0,0,0-1,1v1a1,1,0,0,0,1,1h3a1,1,0,0,0,1-1h3l1-1V16.77A2,2,0,0,0,21,15l1-1Z"/>
  </g>
</svg>
