<svg id="Layer_1" data-name="Layer 1" xmlns="http://www.w3.org/2000/svg" viewBox="0 0 24 24">
  <defs>
    <style>.cls-1{fill:none;opacity:0.75;}</style>
  </defs>
  <title>ic_brightness</title>
  <rect id="_Path_" data-name="&lt;Path&gt;" class="cls-1" width="24" height="24"/>
  <path
    d="M22.5,12,20.11,9.83l1-3.08-3.15-.69-.69-3.15-3.08,1L12,1.5,9.83,3.89l-3.08-1L6.06,6.06l-3.15.69,1,3.08L1.5,12l2.39,2.17-1,3.08,3.15.69.69,3.15,3.08-1L12,22.5l2.17-2.39,3.08,1,.69-3.15,3.15-.69-1-3.08ZM12,18V6a6,6,0,0,1,0,12Z"/>
</svg>
