<svg id="Layer_1" data-name="Layer 1" xmlns="http://www.w3.org/2000/svg" viewBox="0 0 24 24">
  <defs>
    <style>.cls-1{fill:none;opacity:0.5;}</style>
  </defs>
  <title>ic_contacts_busy</title>
  <rect id="_Rectangle_" data-name="&lt;Rectangle&gt;" class="cls-1" width="24" height="24"/>
  <path
    d="M21.43,7H13.57A1.57,1.57,0,0,0,12,8.57v7.86A1.57,1.57,0,0,0,13.57,18h7.86A1.57,1.57,0,0,0,23,16.43V8.57A1.57,1.57,0,0,0,21.43,7Zm-1.49,9.17L17.5,13.72l-2.44,2.45L13.83,15l2.45-2.45-2.45-2.45,1.23-1.22,2.44,2.45,2.44-2.45,1.23,1.22L18.72,12.5,21.17,15Z"/>
  <path
    d="M10.5,8.11A3,3,0,0,1,13,5.25a2.73,2.73,0,0,0-.24-1.17,1.13,1.13,0,0,0-1-.66c0-1-1.45-1.42-2.28-1.42A3.43,3.43,0,0,0,6,5.41l.15,2.14A3.34,3.34,0,0,0,9.47,11a3.42,3.42,0,0,0,1-.17Z"/>
  <path
    d="M13.57,19.5a3.08,3.08,0,0,1-3.07-3.07V14.09l-1,.79,0,0,0,0L7,12.88a6.2,6.2,0,0,0-4.54,2.75,8.09,8.09,0,0,0-.25,1.08c0,.08-.17,4.17-.21,5.17H17c0-.43-.06-1.39-.1-2.38Z"/>
</svg>
