<svg id="Layer_1" data-name="Layer 1" xmlns="http://www.w3.org/2000/svg" viewBox="0 0 24 24">
  <defs>
    <style>.cls-1{fill-rule:evenodd;}</style>
  </defs>
  <title>ic_camera_reverse</title>
  <g id="_Group_" data-name="&lt;Group&gt;">
    <path class="cls-1"
          d="M12,19a6,6,0,0,1-6-6H4.51l2.25-2.5L8.89,13H7.51A4.36,4.36,0,0,0,12,17.5,4.47,4.47,0,0,0,15.61,16l1.15,1A5.74,5.74,0,0,1,12,19Zm5.25-3.5L15.14,13h1.37A4.36,4.36,0,0,0,12,8.5,4.47,4.47,0,0,0,8.41,10L7.26,9A5.74,5.74,0,0,1,12,7a6,6,0,0,1,6,6h1.5ZM21,6H17l-1.5-3h-7L7,6H3C1.6,6,1,6.59,1,8V19c0,1.41.6,2,2,2l18,0c1.41,0,2-.59,2-2V8C23,6.59,22.42,6,21,6Z"/>
  </g>
</svg>
