<svg id="Layer_1" data-name="Layer 1" xmlns="http://www.w3.org/2000/svg" viewBox="0 0 24 24">
  <defs>
    <style>.cls-1{fill:none;}</style>
  </defs>
  <title>ic_cloud_upload</title>
  <path id="_Path_" data-name="&lt;Path&gt;"
        d="M20.37,11.27a5.21,5.21,0,0,0-5-4.56,4.68,4.68,0,0,0-1.45.23A5.22,5.22,0,0,0,9.56,4C6.76,4,4.5,6.68,4.5,9.71c0,.16,0,.31,0,.46a4.33,4.33,0,0,0-3,4.24A4.57,4.57,0,0,0,5,19h5V14H8l4-4,4,4H14v5h5.26a4.09,4.09,0,0,0,3.24-4.15A4,4,0,0,0,20.37,11.27Z"/>
  <rect class="cls-1" width="24" height="24"/>
</svg>
