<svg id="Layer_1" data-name="Layer 1" xmlns="http://www.w3.org/2000/svg" viewBox="0 0 24 24">
  <defs>
    <style>.cls-1{fill:none;opacity:0.5;}</style>
  </defs>
  <title>ic_contacts_available</title>
  <rect id="_Rectangle_" data-name="&lt;Rectangle&gt;" class="cls-1" width="24" height="24"/>
  <path id="_Compound_Path_" data-name="&lt;Compound Path&gt;"
        d="M17.5,7A5.5,5.5,0,1,0,23,12.5,5.48,5.48,0,0,0,17.5,7Zm-1,8.72-.08-.08-.12.11L14,13.56l1.17-1.13,1.29,1.22,4-3.83,1.1,1.07Z"/>
  <path
    d="M11.76,3.42c0-1-1.44-1.42-2.26-1.42A3.46,3.46,0,0,0,6,5.41l.2,2.14A3.33,3.33,0,0,0,9.5,11a3.71,3.71,0,0,0,.67-.07,7.51,7.51,0,0,1,2.72-4.34L13,5.41a3,3,0,0,0-.25-1.33A1.13,1.13,0,0,0,11.76,3.42Z"/>
  <path
    d="M16.91,20a7.49,7.49,0,0,1-6.65-5.55L9.54,15,7,13s-3.8,1.5-4.46,2.68a10,10,0,0,0-.25,1.16C2.29,16.92,2,21,2,22H17C17,21.63,17,20.83,16.91,20Z"/>
</svg>
