<svg id="Layer_1" data-name="Layer 1" xmlns="http://www.w3.org/2000/svg" viewBox="0 0 24 24">
  <defs>
    <style>.cls-1{fill:none;}.cls-2{opacity:0.6;}</style>
  </defs>
  <title>ic_converged_error</title>
  <g id="_Group_" data-name="&lt;Group&gt;">
    <rect id="_Rectangle_" data-name="&lt;Rectangle&gt;" class="cls-1" width="24" height="24"
          transform="translate(24 0) rotate(90)"/>
    <g id="_Group_2" data-name="&lt;Group&gt;" class="cls-2">
      <rect id="_Rectangle_2" data-name="&lt;Rectangle&gt;" class="cls-1" width="24" height="24"
            transform="translate(24 0) rotate(90)"/>
      <path
        d="M9.88,7.77l.5-.88A2.47,2.47,0,0,1,9.5,5a2.5,2.5,0,0,1,5,0,2.47,2.47,0,0,1-.88,1.89l.5.88a3.5,3.5,0,1,0-4.24,0Z"/>
      <path
        d="M20,15.5a3.46,3.46,0,0,0-1.37.28l.49.89A2.38,2.38,0,0,1,20,16.5,2.5,2.5,0,1,1,17.71,20H16.66A3.49,3.49,0,1,0,20,15.5Z"/>
      <path
        d="M6.29,20A2.5,2.5,0,1,1,4,16.5a2.38,2.38,0,0,1,.88.17l.49-.89A3.46,3.46,0,0,0,4,15.5,3.5,3.5,0,1,0,7.34,20Z"/>
    </g>
    <path id="_Compound_Path_" data-name="&lt;Compound Path&gt;" d="M12,4,3,20H21Zm1,14H11V16h2Zm-2-3V9h2v6Z"/>
  </g>
</svg>
