<svg id="Layer_1" data-name="Layer 1" xmlns="http://www.w3.org/2000/svg" viewBox="0 0 24 24">
  <defs>
    <style>.cls-1{fill:none;}</style>
  </defs>
  <title>ic_call_secure</title>
  <g id="_Group_" data-name="&lt;Group&gt;">
    <g id="_Group_2" data-name="&lt;Group&gt;">
      <path id="_Compound_Path_" data-name="&lt;Compound Path&gt;"
            d="M21.84,19.12a.79.79,0,0,0-.06-1L21.67,18h0l-4.51-3.22h0a.76.76,0,0,0-1,.08.35.35,0,0,0-.07.09h0l0,0c-.3.43-.3.49-.54.87a16,16,0,0,0-1.15,2.34c-1.26-.2-3.15-1.3-5.21-3.36S6,10.91,5.78,9.64A15.09,15.09,0,0,0,8.12,8.5c.38-.25.43-.24.87-.54a.1.1,0,0,1,0,0H9l.09-.07a.77.77,0,0,0,.08-1h0L6,2.33H6l-.09-.11a.78.78,0,0,0-1-.06C2.72,3.64.77,5.27,1,7.19S3.76,13.8,7,17,14.75,22.7,16.81,23s3.55-1.69,5-3.85"/>
    </g>
    <rect id="_Rectangle_" data-name="&lt;Rectangle&gt;" class="cls-1" width="24" height="24"/>
  </g>
  <path id="_Compound_Path_2" data-name="&lt;Compound Path&gt;"
        d="M20,6V4a2,2,0,0,0-2-2H16a2,2,0,0,0-2,2V6H13v6h8V6ZM15,4a1,1,0,0,1,1-1h2a1,1,0,0,1,1,1V6H15Z"/>
</svg>
