<svg id="Layer_1" data-name="Layer 1" xmlns="http://www.w3.org/2000/svg" viewBox="0 0 24 24">
  <title>ic_cloud_sync</title>
  <path
    d="M20,12.22V11c0-4.28-4-7-7-7H12a7.24,7.24,0,0,0-7,6.08c-2.38.19-4,2.3-4,4.88v.16A4.75,4.75,0,0,0,5.6,20H19.44A3.68,3.68,0,0,0,23,16.22V16A3.57,3.57,0,0,0,20,12.22ZM12,18A5,5,0,0,1,7.1,14H6l1.76-3.83,2.12,3.53-1.37.11A4,4,0,0,0,12,16.5a3.48,3.48,0,0,0,2.12-.72l1.26.89A5,5,0,0,1,12,18Zm4.23-2.18-2.12-3.53,1.37-.11A4,4,0,0,0,12,9.5a3.48,3.48,0,0,0-2.12.72L8.61,9.33A5,5,0,0,1,16.9,12H18Z"/>
</svg>
