<svg id="Layer_1" data-name="Layer 1" xmlns="http://www.w3.org/2000/svg" viewBox="0 0 24 24">
  <defs>
    <style>.cls-1{fill:none;opacity:0.5;}.cls-2{fill-rule:evenodd;}</style>
  </defs>
  <title>ic_contacts_groups</title>
  <g id="_Group_" data-name="&lt;Group&gt;">
    <rect id="_Rectangle_" data-name="&lt;Rectangle&gt;" class="cls-1" width="24" height="24"/>
    <path id="_Compound_Path_" data-name="&lt;Compound Path&gt;"
          d="M4.15,12a6.25,6.25,0,0,0,3.1-1c-.25,0-.67-.53-.78-1.48s-.21-2.08-.21-2.08h0A2.72,2.72,0,0,0,4,5.5a2.2,2.2,0,0,0-1.3.43,1.72,1.72,0,0,0-.43.46.69.69,0,0,0-.12.29s0,.32,0,.32a.36.36,0,0,0-.26.17,2.47,2.47,0,0,0-.19.94c0,.44-.09,1-.14,1.44C1.42,10.5,1,11,.75,11a6.25,6.25,0,0,0,3.1,1h.3Z"/>
    <path id="_Compound_Path_2" data-name="&lt;Compound Path&gt;" class="cls-2"
          d="M19,13h1.48c1.33.21,2.73.65,3.13,1.45a2.72,2.72,0,0,1,.1.55c0,.12.29,3.5.29,3.5H21V15.25c0-.24-.61-.75-.61-.75A9.44,9.44,0,0,0,19,13Z"/>
    <path id="_Path_" data-name="&lt;Path&gt;"
          d="M20,12a2.39,2.39,0,0,0,2.36-2.49L22.5,8a2.11,2.11,0,0,0-.18-1,.79.79,0,0,0-.7-.47c0-.75-1-1-1.62-1A2.48,2.48,0,0,0,17.5,8l.14,1.55A2.39,2.39,0,0,0,20,12Z"/>
    <path id="_Compound_Path_3" data-name="&lt;Compound Path&gt;" class="cls-2"
          d="M3.61,14.5S3,15,3,15.25V18.5H0S.29,15.12.29,15a2.72,2.72,0,0,1,.1-.55c.4-.8,1.8-1.24,3.13-1.45H5A9.44,9.44,0,0,0,3.61,14.5Z"/>
    <g id="_Group_2" data-name="&lt;Group&gt;">
      <path id="_Path_2" data-name="&lt;Path&gt;"
            d="M12,11.75A3.44,3.44,0,0,0,15.3,8.11l.2-2.26a3.39,3.39,0,0,0-.25-1.41,1.14,1.14,0,0,0-1-.69c0-1.09-1.45-1.5-2.28-1.5A3.52,3.52,0,0,0,8.5,5.85l.15,2.26A3.44,3.44,0,0,0,12,11.75Z"/>
      <path d="M12,22h7.5c0-1-.21-5.08-.21-5.16A7.73,7.73,0,0,0,19,15.76,6.18,6.18,0,0,0,14.5,13L12,15l0,0Z"/>
      <path d="M12,22H4.5c0-1,.21-5.08.21-5.16A7.73,7.73,0,0,1,5,15.76,6.18,6.18,0,0,1,9.5,13L12,15l0,0Z"/>
    </g>
  </g>
</svg>
