<svg id="Layer_1" data-name="Layer 1" xmlns="http://www.w3.org/2000/svg" viewBox="0 0 24 24">
  <defs>
    <style>.cls-1{fill:none;opacity:0.5;}</style>
  </defs>
  <title>ic_contacts_people_add</title>
  <g id="_Group_" data-name="&lt;Group&gt;">
    <rect id="_Rectangle_" data-name="&lt;Rectangle&gt;" class="cls-1" width="24" height="24"/>
  </g>
  <rect x="16" y="8.25" width="8" height="1.5"/>
  <rect x="16" y="8.25" width="8" height="1.5" transform="translate(29 -11) rotate(90)"/>
  <g id="_Group_2" data-name="&lt;Group&gt;">
    <path id="_Path_" data-name="&lt;Path&gt;"
          d="M11,11.75A3.44,3.44,0,0,0,14.3,8.11l.2-2.26a3.39,3.39,0,0,0-.25-1.41,1.14,1.14,0,0,0-1-.69c0-1.09-1.45-1.5-2.28-1.5A3.52,3.52,0,0,0,7.5,5.85l.15,2.26A3.44,3.44,0,0,0,11,11.75Z"/>
    <path d="M11,22h7.5c0-1-.21-5.08-.21-5.16A7.73,7.73,0,0,0,18,15.76,6.18,6.18,0,0,0,13.5,13L11,15l0,0Z"/>
    <path d="M11,22H3.5c0-1,.21-5.08.21-5.16A7.73,7.73,0,0,1,4,15.76,6.18,6.18,0,0,1,8.5,13L11,15l0,0Z"/>
  </g>
</svg>
