<svg id="Layer_1" data-name="Layer 1" xmlns="http://www.w3.org/2000/svg" viewBox="0 0 24 24">
  <defs>
    <style>.cls-1{opacity:0.2;}.cls-2{fill:none;}</style>
  </defs>
  <title>ic_contacts</title>
  <g id="_Group_" data-name="&lt;Group&gt;">
    <path id="_Path_" data-name="&lt;Path&gt;"
          d="M7.5,11.75h.24a10.14,10.14,0,0,0,4.76-1.4c-.39,0-1-.78-1.2-2.17s-.33-3-.33-3v0A3.52,3.52,0,0,0,7.5,2.25a3.58,3.58,0,0,0-2,.62,2.8,2.8,0,0,0-.66.67A1.16,1.16,0,0,0,4.66,4s-.06.47-.06.47a.6.6,0,0,0-.39.25,3.54,3.54,0,0,0-.29,1.37c-.07.64-.15,1.47-.22,2.11-.17,1.39-.81,2.18-1.2,2.17a10.14,10.14,0,0,0,4.76,1.4Z"/>
    <g id="_Rectangle_" data-name="&lt;Rectangle&gt;" class="cls-1">
      <rect class="cls-2" width="24" height="24"/>
    </g>
    <path id="_Path_2" data-name="&lt;Path&gt;"
          d="M16.47,11.75A3.44,3.44,0,0,0,19.8,8.11L20,5.85a3.39,3.39,0,0,0-.25-1.41,1.14,1.14,0,0,0-1-.69c0-1.09-1.45-1.5-2.28-1.5A3.52,3.52,0,0,0,13,5.85l.15,2.26A3.44,3.44,0,0,0,16.47,11.75Z"/>
    <path
      d="M14.79,16.84a7.73,7.73,0,0,0-.25-1.08A6.18,6.18,0,0,0,10,13L7.54,15l0,0,0,0L5,13A6.18,6.18,0,0,0,.46,15.76a7.73,7.73,0,0,0-.25,1.08C.21,16.92,0,21,0,22H15C15,21,14.79,16.92,14.79,16.84Z"/>
    <path
      d="M23.79,16.84a7.73,7.73,0,0,0-.25-1.08A6.18,6.18,0,0,0,19,13l-2.46,2,0,0,0,0L14,13l-.72.14a6.15,6.15,0,0,1,2.13,2.13l.06.1,0,.11a5.13,5.13,0,0,1,.29,1.34C15.79,17,16,21,16,22v0h8C24,21,23.79,16.92,23.79,16.84Z"/>
  </g>
</svg>
