<svg id="Layer_1" data-name="Layer 1" xmlns="http://www.w3.org/2000/svg" viewBox="0 0 24 24">
  <defs>
    <style>.cls-1{fill:none;opacity:0.8;}</style>
  </defs>
  <title>ic_citation</title>
  <g id="eCitations">
    <rect id="bounding_box" data-name="bounding box" class="cls-1" width="24" height="24"/>
    <path
      d="M4,1V23l2-2,2,2,2-2,2,2,2-2,2,2,2-2,2,2V1ZM6,4h4V5.5H6ZM6,8h4V9.5H6Zm12,9.5H6V16H18Zm0-4H6V12H18Zm-3-3h0c-.85-.5-3-1.64-3-2.5a2.53,2.53,0,0,1,.37-1.34,3.08,3.08,0,0,0,.16-1.37,2.69,2.69,0,0,0-.38-1s1-1.24,1-1.24a1.83,1.83,0,0,0,.9.46,1,1,0,0,0,.86-.39A.07.07,0,0,1,15,3c.08,0,.08.06.08.06a1,1,0,0,0,.86.4A2,2,0,0,0,16.87,3s1,1.22,1,1.24a2.69,2.69,0,0,0-.38,1,3.08,3.08,0,0,0,.16,1.37A2.53,2.53,0,0,1,18,8C18,8.86,15.85,10,15,10.5Z"/>
  </g>
</svg>
