<svg id="Layer_1" data-name="Layer 1" xmlns="http://www.w3.org/2000/svg" viewBox="0 0 24 24">
  <defs>
    <style>.cls-1{fill:none;}</style>
  </defs>
  <title>ic_draw</title>
  <g id="_Group_" data-name="&lt;Group&gt;">
    <polygon id="_Path_" data-name="&lt;Path&gt;" points="8 22 5 20 8 18 20 18 20 22 8 22"/>
    <rect id="_Path_2" data-name="&lt;Path&gt;" x="21" y="18" width="1" height="4"/>
  </g>
  <rect id="_Rectangle_" data-name="&lt;Rectangle&gt;" class="cls-1" width="24" height="24"/>
  <path d="M5.15,5,7.36,8.13,4,7.73,5.15,5M4.81,2,2,9l7.5,1L4.81,2Z"/>
  <path
    d="M4,21c-1.09,0-3-1-3-4,0-2.64,4.36-3.84,9.88-5.36,4.23-1.16,10-2.75,10-4.64a.88.88,0,0,0-.35-.69C18.88,4.84,13.19,5,9,5V3c6,0,10.86,0,13,1.84A2.81,2.81,0,0,1,23,7c0,3.39-5.61,4.93-11.54,6.56C8.33,14.42,3.1,15.86,3.1,17c0,1.84.72,2,.9,2Z"/>
</svg>
