<svg id="Layer_1" data-name="Layer 1" xmlns="http://www.w3.org/2000/svg" viewBox="0 0 24 24">
  <defs>
    <style>.cls-1{fill:none;opacity:0.5;}</style>
  </defs>
  <title>ic_dispatch</title>
  <g id="_Group_" data-name="&lt;Group&gt;">
    <rect id="_Rectangle_" data-name="&lt;Rectangle&gt;" class="cls-1" width="24" height="24"/>
    <g id="_Group_2" data-name="&lt;Group&gt;">
      <path id="_Path_" data-name="&lt;Path&gt;"
            d="M7.75,7.26V5.87A4.12,4.12,0,0,1,12,1.75a4.12,4.12,0,0,1,4.25,4.12V7.26H17V5.87A4.84,4.84,0,0,0,12,1h0A4.84,4.84,0,0,0,7,5.87V7.26Z"/>
      <g id="_Group_3" data-name="&lt;Group&gt;">
        <path id="_Compound_Path_" data-name="&lt;Compound Path&gt;"
              d="M17.55,8.66C17,9.7,15.77,11.54,14.7,12l-1.1.46-.15-.36,1.1-.46c1-.41,2.07-2.21,2.54-3.15l.46.19"/>
      </g>
      <path id="_Path_2" data-name="&lt;Path&gt;" d="M7,10A1,1,0,0,1,6,9V7A1,1,0,0,1,7,6H8v4Z"/>
      <path id="_Path_3" data-name="&lt;Path&gt;" d="M17,10a1,1,0,0,0,1-1V7a1,1,0,0,0-1-1H16v4Z"/>
    </g>
    <g id="_Group_4" data-name="&lt;Group&gt;">
      <path id="_Path_4" data-name="&lt;Path&gt;"
            d="M12,11.75A3.44,3.44,0,0,0,15.3,8.11l.2-2.26a3.39,3.39,0,0,0-.25-1.41,1.14,1.14,0,0,0-1-.69c0-1.09-1.45-1.5-2.28-1.5A3.52,3.52,0,0,0,8.5,5.85l.15,2.26A3.44,3.44,0,0,0,12,11.75Z"/>
      <path d="M12,22h7.5c0-1-.21-5.08-.21-5.16A7.73,7.73,0,0,0,19,15.76,6.18,6.18,0,0,0,14.5,13L12,15l0,0Z"/>
      <path d="M12,22H4.5c0-1,.21-5.08.21-5.16A7.73,7.73,0,0,1,5,15.76,6.18,6.18,0,0,1,9.5,13L12,15l0,0Z"/>
    </g>
  </g>
</svg>
