<svg id="Layer_1" data-name="Layer 1" xmlns="http://www.w3.org/2000/svg" viewBox="0 0 24 24">
  <title>ic_draw_tool</title>
  <polygon points="21.32 5.58 18.46 2.72 17.02 4.15 19.89 7.01 21.32 5.58"/>
  <polygon points="19.17 7.72 16.31 4.87 9.43 11.72 12.3 14.57 19.17 7.72"/>
  <polygon points="8 16 11.58 15.29 8.72 12.43 8 16"/>
  <polygon
    points="22 22 14.85 14.85 13.35 16.35 15 18 6 18 6 9 7.66 10.66 9.16 9.16 2 2 2 7 3.5 7 3.5 8 2 8 2 10 3.5 10 3.5 11 2 11 2 13 3.5 13 3.5 14 2 14 2 16 3.5 16 3.5 17 2 17 2 19 3.5 19 3.5 20 2 20 2 22 4 22 4 20.5 5 20.5 5 22 7 22 7 20.5 8 20.5 8 22 10 22 10 20.5 11 20.5 11 22 13 22 13 20.5 14 20.5 14 22 16 22 16 20.5 17 20.5 17 22 22 22"/>
</svg>
