<svg id="Layer_1" data-name="Layer 1" xmlns="http://www.w3.org/2000/svg" viewBox="0 0 24 24">
  <defs>
    <style>.cls-1{fill:none;}</style>
  </defs>
  <title>ic_gallery</title>
  <rect id="_Rectangle_" data-name="&lt;Rectangle&gt;" class="cls-1" width="24" height="24"/>
  <polygon points="17.5 18.5 16 17 15 18 15 20 20 20 20 19 19 17.95 17.5 18.5"/>
  <path d="M13,22h9V13H13Zm1-8h7v7H14Z"/>
  <path d="M2,22h9V13H2Zm1-8h7v7H3Z"/>
  <polygon points="6.5 18.5 5 17 4 18 4 20 9 20 9 19 8 17.95 6.5 18.5"/>
  <polygon points="20 8 19 6.95 17.5 7.5 16 6 15 7 15 9 20 9 20 8"/>
  <path d="M13,2v9h9V2Zm8,8H14V3h7Z"/>
  <polygon points="6.5 7.5 5 6 4 7 4 9 9 9 9 8 8 6.95 6.5 7.5"/>
  <path d="M2,11h9V2H2ZM3,3h7v7H3Z"/>
</svg>
