<svg id="Layer_1" data-name="Layer 1" xmlns="http://www.w3.org/2000/svg" viewBox="0 0 24 24">
  <title>ic_gun</title>
  <path d="M17.73,1.41A.63.63,0,0,0,17.1,2h0a.63.63,0,0,0,.63.62h.84A.63.63,0,0,0,19.2,2h0a.63.63,0,0,0-.63-.62Z"/>
  <path d="M19,3.88a.63.63,0,0,0-.63.62V5.73a.62.62,0,0,0,.63.62h0a.59.59,0,0,0,.6-.62V4.5a.6.6,0,0,0-.6-.62Z"/>
  <path d="M19,20.34a.62.62,0,0,0-.63.61v.83a.62.62,0,0,0,.63.61h0a.59.59,0,0,0,.6-.61V21a.59.59,0,0,0-.6-.61Z"/>
  <path
    d="M4,1.34V7s.32,0,.37,0L10,8.32V9.7c0,2,.93,3.3,4,3.3v6h.5v3a6.26,6.26,0,0,0,1,.51H17c.1.07.34.46.48.46h.46c.14,0,.36.07.46,0l.45-.46h.46c.19,0,.2-.33.2-.51V21s-.2,0-.2,0V5.58s0-.44.11-.46a.76.76,0,0,0,.35-.36V4.2H19.3V3.29s-.49-.13-.54-.13l-.37-.37s0,0,0,0,.29,0,.42,0,.17-.23.17-.38a.54.54,0,0,0-.47-.59c-.17,0-.28,0-.31.14-.08.5-.6.33-1,.33a1.89,1.89,0,0,0-.66.21.79.79,0,0,1-1.11-.35c0-.08-.06,0-.14-.08s-.18-.09-.23,0a3,3,0,0,1-.36.93h0A1.82,1.82,0,0,1,13,4c-.95,0-7.43-3-7.43-3C4.6,1,4.05,1,4,1.34ZM14,9v3c-2,0-2.5,0-2.5-3Z"/>
</svg>
