<svg id="Layer_1" data-name="Layer 1" xmlns="http://www.w3.org/2000/svg" viewBox="0 0 24 24">
  <defs>
    <style>.cls-1{fill:none;opacity:0.75;}</style>
  </defs>
  <title>ic_groups_voice-only</title>
  <path d="M20.12,13l-1.93,2.91L17,10.05,14.61,18l-2-7L11,15,9.5,10,8,19,6,11l-.8,2H2a10,10,0,0,0,20,0Z"/>
  <path
    d="M4.48,11,6,7l2,6,1.4-8.58L11,11l1.65-3.85,2,5.85L17,6l1.67,6.68L19.53,11H22c-.3-5.26-4.65-9-10-9S2.3,5.74,2,11Z"/>
  <rect id="_Path_" data-name="&lt;Path&gt;" class="cls-1" width="24" height="24"/>
</svg>
