<svg id="Layer_1" data-name="Layer 1" xmlns="http://www.w3.org/2000/svg" viewBox="0 0 24 24">
  <defs>
    <style>.cls-1,.cls-2{fill:none;}.cls-1{opacity:0.75;}</style>
  </defs>
  <title>ic_howling_off</title>
  <rect id="_Path_" data-name="&lt;Path&gt;" class="cls-1" width="24" height="24"/>
  <rect id="_Path_2" data-name="&lt;Path&gt;" class="cls-2" width="24" height="24"/>
  <polygon points="10 3 9 3 7.74 4.74 10 7 10 3"/>
  <polygon points="21.72 8.5 19 8.5 15 3 14 3 14 11 18.79 15.79 19 15.5 21.72 15.5 23 14.75 23 9.25 21.72 8.5"/>
  <polygon
    points="2.34 5.66 5.07 8.4 5 8.5 2.28 8.5 1 9.25 1 14.75 2.28 15.5 5 15.5 9 21 10 21 10 13.32 14 17.32 14 21 15 21 16.13 19.45 19.84 23.16 21.28 21.72 3.78 4.22 2.34 5.66"/>
</svg>
