<svg id="Layer_1" data-name="Layer 1" xmlns="http://www.w3.org/2000/svg" viewBox="0 0 24 24">
  <defs>
    <style>.cls-1{fill:none;opacity:0.75;}</style>
  </defs>
  <title>ic_id_card</title>
  <g id="_Group_" data-name="&lt;Group&gt;">
    <g id="_Group_2" data-name="&lt;Group&gt;">
      <path
        d="M22.08,3H1.92A1,1,0,0,0,1,4V20a1,1,0,0,0,.92,1H22.08A1,1,0,0,0,23,20V4A1,1,0,0,0,22.08,3ZM7.5,6C8,6,9,6.27,9,7a.72.72,0,0,1,.64.45,2.12,2.12,0,0,1,.16.9L9.62,9.78A2.22,2.22,0,0,1,7.5,12.14,2.22,2.22,0,0,1,5.38,9.78L5.25,8.32A2.29,2.29,0,0,1,7.5,6ZM3,17s.18-2.55.18-2.66a.58.58,0,0,1,.11-.27,5.69,5.69,0,0,1,3.49-1.42l.72.82.72-.82a5.75,5.75,0,0,1,3.49,1.42.48.48,0,0,1,.12.28c0,.1.17,2.65.17,2.65Zm18-1H14V14h7Zm0-3H14V11h7Zm0-3H14V8h7Z"/>
    </g>
    <rect id="_Path_" data-name="&lt;Path&gt;" class="cls-1" width="24" height="24"/>
  </g>
</svg>
