<svg id="Layer_1" data-name="Layer 1" xmlns="http://www.w3.org/2000/svg" viewBox="0 0 24 24">
  <defs>
    <style>.cls-1{fill:none;}</style>
  </defs>
  <title>ic_information</title>
  <g id="_Group_" data-name="&lt;Group&gt;">
    <rect id="_Path_" data-name="&lt;Path&gt;" class="cls-1" width="24" height="24"/>
    <ellipse cx="12" cy="7.5" rx="2" ry="1.5"/>
    <polygon points="13.5 16 13.5 10 12 10 10.5 10 9 10 9 12 10.5 12 10.5 16 9 16 9 18 15 18 15 16 13.5 16"/>
    <path id="_Compound_Path_" data-name="&lt;Compound Path&gt;"
          d="M12,2A10,10,0,1,0,22,12,10,10,0,0,0,12,2Zm0,18.25A8.25,8.25,0,1,1,20.25,12,8.25,8.25,0,0,1,12,20.25Z"/>
  </g>
</svg>
