<svg id="Layer_1" data-name="Layer 1" xmlns="http://www.w3.org/2000/svg" viewBox="0 0 24 24">
  <defs>
    <style>.cls-1{fill:none;}</style>
  </defs>
  <title>ic_keyboard</title>
  <g id="_Group_" data-name="&lt;Group&gt;">
    <rect id="_Rectangle_" data-name="&lt;Rectangle&gt;" y="7" width="4" height="2"/>
    <rect id="_Rectangle_2" data-name="&lt;Rectangle&gt;" x="10" y="7" width="4" height="2"/>
    <rect id="_Rectangle_3" data-name="&lt;Rectangle&gt;" x="15" y="7" width="4" height="2"/>
    <rect id="_Rectangle_4" data-name="&lt;Rectangle&gt;" x="20" y="7" width="4" height="2"/>
    <rect id="_Rectangle_5" data-name="&lt;Rectangle&gt;" x="5" y="7" width="4" height="2"/>
    <rect id="_Path_" data-name="&lt;Path&gt;" class="cls-1" width="24" height="24"/>
    <rect id="_Rectangle_6" data-name="&lt;Rectangle&gt;" y="10" width="6" height="2"/>
    <rect id="_Rectangle_7" data-name="&lt;Rectangle&gt;" x="17" y="10" width="7" height="2"/>
    <rect id="_Rectangle_8" data-name="&lt;Rectangle&gt;" x="7" y="10" width="4" height="2"/>
    <rect id="_Rectangle_9" data-name="&lt;Rectangle&gt;" x="12" y="10" width="4" height="2"/>
    <rect id="_Rectangle_10" data-name="&lt;Rectangle&gt;" y="13" width="4" height="2"/>
    <rect id="_Rectangle_11" data-name="&lt;Rectangle&gt;" x="10" y="13" width="4" height="2"/>
    <rect id="_Rectangle_12" data-name="&lt;Rectangle&gt;" x="15" y="13" width="4" height="2"/>
    <rect id="_Rectangle_13" data-name="&lt;Rectangle&gt;" x="20" y="13" width="4" height="2"/>
    <rect id="_Rectangle_14" data-name="&lt;Rectangle&gt;" x="5" y="13" width="4" height="2"/>
    <rect id="_Rectangle_15" data-name="&lt;Rectangle&gt;" y="16" width="4" height="2"/>
    <rect id="_Rectangle_16" data-name="&lt;Rectangle&gt;" x="20" y="16" width="4" height="2"/>
    <rect id="_Rectangle_17" data-name="&lt;Rectangle&gt;" x="5" y="16" width="14" height="2"/>
  </g>
</svg>
