<svg id="Layer_1" data-name="Layer 1" xmlns="http://www.w3.org/2000/svg" viewBox="0 0 24 24">
  <defs>
    <style>.cls-1{fill:none;}</style>
  </defs>
  <title>ic_location</title>
  <g id="_Group_" data-name="&lt;Group&gt;">
    <rect id="_Path_" data-name="&lt;Path&gt;" class="cls-1" width="24" height="24"/>
    <g id="_Group_2" data-name="&lt;Group&gt;">
      <path
        d="M12,1C7.23,1,3,4.78,3,9.44q0,.29,0,.6a8.39,8.39,0,0,0,.8,3C6,18.34,12,22.5,12,22.5s6-4.16,8.17-9.46a8.39,8.39,0,0,0,.8-3q0-.31,0-.6C21,4.78,16.77,1,12,1Zm0,12.25A3.75,3.75,0,1,1,15.75,9.5,3.75,3.75,0,0,1,12,13.25Z"/>
    </g>
  </g>
</svg>
