<svg id="Layer_1" data-name="Layer 1" xmlns="http://www.w3.org/2000/svg" viewBox="0 0 32 32">
  <defs>
    <style>.cls-1{fill:none;}</style>
  </defs>
  <title>ic_location_me_mapping</title>
  <g id="_Group_" data-name="&lt;Group&gt;">
    <g id="_Group_2" data-name="&lt;Group&gt;">
      <circle id="_Path_" data-name="&lt;Path&gt;" cx="16" cy="16" r="5"/>
      <path id="_Compound_Path_" data-name="&lt;Compound Path&gt;"
            d="M16,5A11,11,0,1,0,27,16,11,11,0,0,0,16,5Zm0,19.25A8.25,8.25,0,1,1,24.25,16,8.25,8.25,0,0,1,16,24.25Z"/>
      <rect x="25.33" y="14.5" width="5.67" height="3"/>
    </g>
    <path d="M20,4,16.45,0h-.9L12,4C13.26,3.47,18.79,3.52,20,4Z"/>
    <rect class="cls-1" width="32" height="32"/>
    <rect x="1" y="14.5" width="5.67" height="3"/>
    <rect x="14.5" y="25.33" width="3" height="5.67"/>
    <rect class="cls-1" width="32" height="32"/>
  </g>
</svg>
