<svg id="Layer_1" data-name="Layer 1" xmlns="http://www.w3.org/2000/svg" viewBox="0 0 24 24">
  <defs>
    <style>.cls-1{fill:none;}</style>
  </defs>
  <title>ic_location_me</title>
  <g id="_Group_" data-name="&lt;Group&gt;">
    <g id="_Group_2" data-name="&lt;Group&gt;">
      <circle id="_Path_" data-name="&lt;Path&gt;" cx="12" cy="12" r="3.5"/>
      <path id="_Compound_Path_" data-name="&lt;Compound Path&gt;"
            d="M12,4a8,8,0,1,0,8,8A8,8,0,0,0,12,4Zm0,14a6,6,0,1,1,6-6A6,6,0,0,1,12,18Z"/>
      <rect x="20" y="11" width="3" height="2"/>
    </g>
    <path d="M15,3,12.34,0h-.68L9,3A15.93,15.93,0,0,1,15,3Z"/>
    <rect class="cls-1" width="24" height="24"/>
    <rect x="1" y="11" width="3" height="2"/>
    <rect x="11" y="20" width="2" height="3"/>
    <rect class="cls-1" width="24" height="24"/>
  </g>
</svg>
