<svg id="Layer_1" data-name="Layer 1" xmlns="http://www.w3.org/2000/svg" viewBox="0 0 24 24">
  <defs>
    <style>.cls-1{fill:none;opacity:0.75;}</style>
  </defs>
  <title>ic_mute_on</title>
  <rect id="_Path_" data-name="&lt;Path&gt;" class="cls-1" width="24" height="24"/>
  <path d="M19.5,12V11H18v1a5.71,5.71,0,0,1-.22,1.53L19,14.75A7,7,0,0,0,19.5,12Z"/>
  <path
    d="M14,19v-.71a9.44,9.44,0,0,0,2.16-.71l3.62,3.61,1.41-1.41-3.34-3.35h0l-1.09-1.08h0L15,13.6h0l-7-7H8L4.22,2.81,2.81,4.22,8.05,9.46V11A4,4,0,0,0,12,15a3.7,3.7,0,0,0,1.33-.26l1.73,1.73A8.11,8.11,0,0,1,12,17c-4,0-6-2-6-5V11H4.5v1c0,3.54,1.84,5.51,5.5,6.29V19h1v1.5H8V22h8V20.5H13V19Z"/>
  <path d="M16,11V6a4,4,0,0,0-4-4A3.92,3.92,0,0,0,8.47,4.23l7.46,7.46A3.94,3.94,0,0,0,16,11Z"/>
</svg>
