<svg id="Layer_1" data-name="Layer 1" xmlns="http://www.w3.org/2000/svg" viewBox="0 0 24 24">
  <defs>
    <style>.cls-1{fill:none;}</style>
  </defs>
  <title>ic_media_move</title>
  <rect x="16" y="2" width="2" height="1"/>
  <rect x="12" y="2" width="2" height="1"/>
  <rect x="4" y="2" width="2" height="1"/>
  <rect x="21" y="18" width="1" height="2"/>
  <rect x="8" y="2" width="2" height="1"/>
  <polygon points="21.98 4 21.98 2 20 2 20 3 21 3 21 4 21.98 4"/>
  <rect x="21" y="6" width="1" height="2"/>
  <rect x="21" y="14" width="1" height="2"/>
  <rect x="21" y="10" width="1" height="2"/>
  <polygon points="7.75 13 5 15.12 5 19 16 19 16 16.88 13.25 14.77 10.84 16.18 7.75 13"/>
  <polygon points="16.5 6.5 13 10.01 14 11 17.5 7.5 19 9 19 5 15 5 16.5 6.5"/>
  <polygon points="17.5 20.5 3.5 20.5 3.5 6.5 12 6.5 12 5 2 5 2 22 19 22 19 12 17.5 12 17.5 20.5"/>
  <rect class="cls-1" width="24" height="24"/>
</svg>
