<svg id="Layer_1" data-name="Layer 1" xmlns="http://www.w3.org/2000/svg" viewBox="0 0 24 24">
  <defs>
    <style>.cls-1{fill:none;}</style>
  </defs>
  <title>ic_mylocation</title>
  <g id="_Group_" data-name="&lt;Group&gt;">
    <rect class="cls-1" width="24" height="24" transform="translate(-0.08 0.08) rotate(-0.37)"/>
    <path
      d="M23,11H19.93A8,8,0,0,0,13,4.07V1H11V4.07A8,8,0,0,0,4.07,11H1v2H4.07A8,8,0,0,0,11,19.93V23h2V19.93A8,8,0,0,0,19.93,13H23ZM12,18a6,6,0,1,1,6-6A6,6,0,0,1,12,18Z"/>
    <circle cx="12" cy="12" r="3.5"/>
    <rect class="cls-1" width="24" height="24" transform="translate(-0.08 0.08) rotate(-0.37)"/>
  </g>
</svg>
