<svg id="Layer_1" data-name="Layer 1" xmlns="http://www.w3.org/2000/svg" viewBox="0 0 24 24">
  <defs>
    <style>.cls-1{fill:none;}</style>
  </defs>
  <title>ic_notification_off</title>
  <g id="_Group_" data-name="&lt;Group&gt;">
    <rect id="_Rectangle_" data-name="&lt;Rectangle&gt;" class="cls-1" width="24" height="24"/>
    <path d="M9.5,21s-.12,2,2.5,2,2.5-2,2.5-2Z"/>
    <path
      d="M19,15.78v-6a6.6,6.6,0,0,0-5.5-6.66V2.48A1.45,1.45,0,0,0,12,1h0A1.45,1.45,0,0,0,10.5,2.48v.61A6.25,6.25,0,0,0,7.59,4.37Z"/>
    <path d="M6.22,5.83A6.9,6.9,0,0,0,5,9.75V16L2,20H20.39Z"/>
  </g>
  <rect x="10.99" y="1.01" width="2" height="24" transform="translate(-5.69 12.29) rotate(-45)"/>
</svg>
