<svg id="Layer_1" data-name="Layer 1" xmlns="http://www.w3.org/2000/svg" viewBox="0 0 24 24">
  <defs>
    <style>.cls-1{fill:none;}.cls-2{fill:#fff;}</style>
  </defs>
  <title>ic_outgoing_picture_add</title>
  <rect id="_Rectangle_" data-name="&lt;Rectangle&gt;" class="cls-1" width="24" height="24"/>
  <polygon points="20 7 20 4 18 4 18 7 15 7 15 9 18 9 18 12 20 12 20 9 23 9 23 7 20 7"/>
  <rect class="cls-2" x="21.5" y="2" width="1.5" height="3"/>
  <polygon id="_Path_" data-name="&lt;Path&gt;" points="5 19 5 13.5 8.5 10.5 12.44 15 15.5 13 19 16 19 19 5 19"/>
  <polygon points="20.5 14 20.5 20.5 3.5 20.5 3.5 3.5 16 3.5 16 2 2 2 2 22 22 22 22 14 20.5 14"/>
</svg>
