<svg id="Layer_1" data-name="Layer 1" xmlns="http://www.w3.org/2000/svg" viewBox="0 0 24 24">
  <defs>
    <style>.cls-1{fill:none;}</style>
  </defs>
  <title>ic_ptt_wave</title>
  <g id="_Group_" data-name="&lt;Group&gt;">
    <path id="_Compound_Path_" data-name="&lt;Compound Path&gt;"
          d="M12,2A10,10,0,1,0,22,12,10,10,0,0,0,12,2ZM8.36,15.59a.74.74,0,0,1-.45-.15.6.6,0,0,1-.08-.9A3.77,3.77,0,0,0,8.89,12,3.75,3.75,0,0,0,7.83,9.46a.6.6,0,0,1,.09-.9.75.75,0,0,1,1,.08A5,5,0,0,1,10.3,12a5,5,0,0,1-1.4,3.36A.74.74,0,0,1,8.36,15.59Zm2.77,1.72a.68.68,0,0,1-.53.23.74.74,0,0,1-.45-.15.61.61,0,0,1-.09-.91,6.58,6.58,0,0,0,0-9,.61.61,0,0,1,.08-.91.74.74,0,0,1,1,.08,7.76,7.76,0,0,1,0,10.62Zm2.12,2a.76.76,0,0,1-1,.08.6.6,0,0,1-.09-.91A9.41,9.41,0,0,0,14.77,12a9.39,9.39,0,0,0-2.61-6.44.61.61,0,0,1,.09-.91.78.78,0,0,1,1,.08,10.65,10.65,0,0,1,3,7.27A10.61,10.61,0,0,1,13.25,19.27Z"/>
    <rect id="_Path_" data-name="&lt;Path&gt;" class="cls-1" width="24" height="24"/>
  </g>
</svg>
