<svg id="Layer_1" data-name="Layer 1" xmlns="http://www.w3.org/2000/svg" viewBox="0 0 24 24">
  <defs>
    <style>.cls-1{fill:none;}.cls-2{fill-rule:evenodd;}</style>
  </defs>
  <title>ic_ptt_missed</title>
  <rect id="_Path_" data-name="&lt;Path&gt;" class="cls-1" width="24" height="24"/>
  <rect id="_Path_2" data-name="&lt;Path&gt;" class="cls-1" width="24" height="24"/>
  <polygon class="cls-2"
           points="24 2.33 22.59 1 17.99 5.33 14.73 2.27 16 1 12 1 12 5 13.36 3.64 17.99 8 18.7 7.33 18.7 7.33 24 2.33"/>
  <rect id="_Path_3" data-name="&lt;Path&gt;" x="5" y="13" width="1" height="4"/>
  <path class="cls-2"
        d="M16,23a1,1,0,0,0,1-1V10L13.5,7H11V5H10V1A.91.91,0,0,0,9,0,.91.91,0,0,0,8,1V5H7C6.68,5,6,6,6,6L5,7v3l1,1v1H7v6H6v4c0,1,1,1,1,1a1,1,0,0,0,1,1H15A1,1,0,0,0,16,23Zm-1-7H8V15h7Zm0-2H8V13h7Zm0-2H8V11h7Z"/>
</svg>
