<svg id="Layer_1" data-name="Layer 1" xmlns="http://www.w3.org/2000/svg" viewBox="0 0 24 24">
  <defs>
    <style>.cls-1{fill-rule:evenodd;}</style>
  </defs>
  <title>ic_ptt_listen_1</title>
  <g id="_Group_" data-name="&lt;Group&gt;">
    <path
      d="M14.15,1.55c-3.17-1.1-4.8-.33-6.8.91S4.33,4.88,4,7H5.41C5.68,5.27,6.57,4.57,8.1,3.62a6.11,6.11,0,0,1,5.79-.8,6.84,6.84,0,0,1,4.64,7.35c-.16,1.56-1.45,2.6-2.91,3.9a15.22,15.22,0,0,0-3.83,5.11c-1.15,2.56-2.65,2.81-3.55,2-.51-.45-.92-.53-.74-1.18H6a2.3,2.3,0,0,0,1.53,2.56A3.85,3.85,0,0,0,9.24,23c1.26,0,2.75-.85,3.84-3.27a13.68,13.68,0,0,1,3.49-4.64c1.43-1.27,3-2.69,3.33-4.69C20.59,6.23,17.68,2.77,14.15,1.55Z"/>
    <g id="_Group_2" data-name="&lt;Group&gt;">
      <path class="cls-1"
            d="M7.79,8,6.7,8.46a8.58,8.58,0,0,1,1,4.54,8.58,8.58,0,0,1-1,4.54L7.79,18A9.66,9.66,0,0,0,9,13,9.66,9.66,0,0,0,7.79,8ZM4.15,10.5a5.41,5.41,0,0,1,.72,2.56,5.49,5.49,0,0,1-.72,2.58l1.08.29A6,6,0,0,0,6,13a5.94,5.94,0,0,0-.72-2.93ZM1.75,12a2.06,2.06,0,0,1,0,2.08l.88.31a2.72,2.72,0,0,0,0-2.76Z"/>
    </g>
  </g>
</svg>
