<svg id="Layer_1" data-name="Layer 1" xmlns="http://www.w3.org/2000/svg" viewBox="0 0 24 24">
  <defs>
    <style>.cls-1{fill:none;}</style>
  </defs>
  <title>ic_ptt_rsm</title>
  <rect id="_Path_" data-name="&lt;Path&gt;" class="cls-1" width="24" height="24"/>
  <path d="M7,9.15V6.86C7,6.38,6.68,6,6,6s-1,.38-1,.86V9.15c0,.47.34.85,1,.85S7,9.62,7,9.15Z"/>
  <path
    d="M19,4.29C18.88,3.94,18.85,3,18,3H17V2.51C17,2.2,16.41,2,16,2H14c-.39,0-1,.2-1,.51V3H6.44C5.31,3,5,3.5,5,3.89S5,5,5,5H7c1,0,1,.55,1,1v4c0,.45-.08,1-1,1H6v6c0,1.43,2.37,1.92,5.26,2h0a.76.76,0,0,0-.75.77l.38,1.53a.7.7,0,0,0,.75.7h.74a.71.71,0,0,0,.76-.7l.37-1.53a.76.76,0,0,0-.75-.77h0c2.89-.07,5.26-.56,5.26-2V16c.4,0,1-.16,1-.53C19,15.47,19,4.39,19,4.29ZM17,14H9V13h8Zm0-2H9V11h8Zm0-2H9V9h8Z"/>
</svg>
