<svg id="Layer_1" data-name="Layer 1" xmlns="http://www.w3.org/2000/svg" viewBox="0 0 24 24">
  <defs>
    <style>.cls-1{fill:none;opacity:0.5;}</style>
  </defs>
  <title>ic_ptt_gateway</title>
  <g id="_Group_" data-name="&lt;Group&gt;">
    <path id="_Path_" data-name="&lt;Path&gt;"
          d="M6,22V17.91A3.11,3.11,0,0,1,9.27,15h2.46A3.07,3.07,0,0,1,15,17.91V22Z"/>
    <rect id="_Rectangle_" data-name="&lt;Rectangle&gt;" x="9" y="9.5" width="3" height="11.5"/>
    <path id="_Compound_Path_" data-name="&lt;Compound Path&gt;"
          d="M10.5,2.5a4,4,0,1,0,4,4A4,4,0,0,0,10.5,2.5Zm0,6.5A2.5,2.5,0,1,1,13,6.5,2.5,2.5,0,0,1,10.5,9Z"/>
    <g id="_Group_2" data-name="&lt;Group&gt;">
      <path id="_Path_2" data-name="&lt;Path&gt;"
            d="M15.5,2a4.72,4.72,0,0,0-1,.12,4.49,4.49,0,0,1,0,8.76,4.72,4.72,0,0,0,1,.12,4.5,4.5,0,0,0,0-9Z"/>
    </g>
    <rect id="_Rectangle_2" data-name="&lt;Rectangle&gt;" class="cls-1" width="24" height="24"/>
  </g>
</svg>
