<svg id="Layer_1" data-name="Layer 1" xmlns="http://www.w3.org/2000/svg" viewBox="0 0 24 24">
  <title>ic_premises</title>
  <path
    d="M10.5,17.5A7,7,0,0,1,12,13.18V6H2V22H12v-.18A7,7,0,0,1,10.5,17.5ZM6,18H4V16H6Zm0-4H4V12H6Zm0-4H4V8H6Zm4,8H8V16h2Zm0-4H8V12h2Zm0-4H8V8h2Z"/>
  <path
    d="M10.5,17.5A7,7,0,0,1,20,11V2H10V22h2.14A7,7,0,0,1,10.5,17.5ZM16,4h2V6H16Zm0,4h2v2H16ZM12,4h2V6H12Zm0,4h2v2H12Z"/>
  <g id="_Group_" data-name="&lt;Group&gt;">
    <polygon
      points="18.75 20 18.75 17 16.88 17 15.94 17 15 17 15 18 16.25 18 16.25 20 15 20 15 21 20 21 20 20 18.75 20"/>
    <path id="_Compound_Path_" data-name="&lt;Compound Path&gt;"
          d="M17.5,12A5.5,5.5,0,1,0,23,17.5,5.5,5.5,0,0,0,17.5,12Zm0,9.76a4.26,4.26,0,1,1,4.26-4.26A4.26,4.26,0,0,1,17.5,21.76Z"/>
  </g>
  <rect x="16.25" y="14" width="2.5" height="2"/>
</svg>
