<svg id="Layer_1" data-name="Layer 1" xmlns="http://www.w3.org/2000/svg" viewBox="0 0 24 24">
  <defs>
    <style>.cls-1{fill:none;opacity:0.5;}</style>
  </defs>
  <title>ic_ptt_private</title>
  <g id="_Group_" data-name="&lt;Group&gt;">
    <rect id="_Path_" data-name="&lt;Path&gt;" class="cls-1" width="24" height="24"/>
    <g id="_Group_2" data-name="&lt;Group&gt;">
      <path id="_Path_2" data-name="&lt;Path&gt;"
            d="M7.47,11.75A3.44,3.44,0,0,0,10.8,8.11L11,5.85a3.39,3.39,0,0,0-.25-1.41,1.14,1.14,0,0,0-1-.69c0-1.09-1.45-1.5-2.28-1.5A3.52,3.52,0,0,0,4,5.85l.15,2.26A3.44,3.44,0,0,0,7.47,11.75Z"/>
      <path
        d="M11,13.22A7.69,7.69,0,0,0,10,13L7.54,15l0,0,0,0L5,13A6.18,6.18,0,0,0,.46,15.76a7.73,7.73,0,0,0-.25,1.08C.21,16.92,0,21,0,22H11Z"/>
    </g>
    <g id="_Group_3" data-name="&lt;Group&gt;">
      <rect id="_Path_3" data-name="&lt;Path&gt;" x="12" y="12" width="1" height="4"/>
      <path id="_Compound_Path_" data-name="&lt;Compound Path&gt;"
            d="M24,9.59V7.68l-1-.5v-.5c0-.27-.69-.68-1-.68H21V5.68c0-.27-.19-.68-.46-.68h-1c-.28,0-.54.41-.54.68V6H17V3.18a1.17,1.17,0,0,0-1.06-1.07A1.06,1.06,0,0,0,15,3.18V6H13.54c-.26,0-.54.42-.54.68v.5l-1,.5v2l1,1V11l1,1v4l-1,1v3.18c0,.26.4.82.66.82H14v.13c0,.26.28.87.54.87H21c.27,0,1-.47,1-.74V21h.32c.28,0,.68-.8.68-1.07V10.68ZM21,16H15V15h6Zm0-2H15V13h6Zm0-2H15V11h6Z"/>
    </g>
  </g>
</svg>
