<svg id="Layer_1" data-name="Layer 1" xmlns="http://www.w3.org/2000/svg" viewBox="0 0 24 24">
  <defs>
    <style>.cls-1{fill:none;}</style>
  </defs>
  <title>ic_settings</title>
  <rect id="_Path_" data-name="&lt;Path&gt;" class="cls-1" width="24" height="24"/>
  <path
    d="M20,12a8,8,0,0,0-.3-2.14l2-1.13-2-3.46L17.71,6.4A8.06,8.06,0,0,0,14,4.26V2H10V4.26A8.06,8.06,0,0,0,6.29,6.4L4.34,5.27l-2,3.46,2,1.13a7.78,7.78,0,0,0,0,4.28l-2,1.13,2,3.46,2-1.13A8.06,8.06,0,0,0,10,19.74V22h4V19.74a8.06,8.06,0,0,0,3.71-2.14l1.95,1.13,2-3.46-2-1.13A8,8,0,0,0,20,12Zm-8,4a4,4,0,1,1,4-4A4,4,0,0,1,12,16Z"/>
</svg>
