<svg id="Layer_1" data-name="Layer 1" xmlns="http://www.w3.org/2000/svg" viewBox="0 0 24 24">
  <defs>
    <style>.cls-1{fill:none;opacity:0.75;}</style>
  </defs>
  <title>ic_sensors_off</title>
  <rect id="_Path_" data-name="&lt;Path&gt;" class="cls-1" width="24" height="24"/>
  <path
    d="M20.75,9.75a2.25,2.25,0,0,0-2,1.25H16.9A5,5,0,0,0,13,7.11V5.26a2.25,2.25,0,1,0-2,0V7.11a4.67,4.67,0,0,0-.64.18l1.25,1.25a2.58,2.58,0,0,1,.39,0A3.5,3.5,0,0,1,15.5,12a2.58,2.58,0,0,1,0,.39l1.26,1.26c.07-.21.13-.43.18-.65h1.84a2.25,2.25,0,1,0,2-3.25Z"/>
  <path
    d="M2,5.38,7.21,10.6c0,.13-.08.26-.11.4H5.26a2.25,2.25,0,1,0,0,2H7.1A5,5,0,0,0,11,16.9v1.84a2.25,2.25,0,1,0,2,0V16.9l.4-.11L18.62,22,20,20.62,3.38,4ZM12,15.5A3.5,3.5,0,0,1,8.5,12s0-.07,0-.1l3.59,3.59Z"/>
</svg>
