<svg id="Layer_1" data-name="Layer 1" xmlns="http://www.w3.org/2000/svg" viewBox="0 0 24 24">
  <defs>
    <style>.cls-1{fill:none;}</style>
  </defs>
  <title>ic_sensors_on</title>
  <g id="_Group_" data-name="&lt;Group&gt;">
    <rect id="_Rectangle_" data-name="&lt;Rectangle&gt;" class="cls-1" width="24" height="24"
          transform="translate(24 0) rotate(90)"/>
    <circle cx="12" cy="12" r="1.75"/>
    <path
      d="M20.75,9.75a2.25,2.25,0,0,0-2,1.25H16.9A5,5,0,0,0,13,7.11V5.26a2.25,2.25,0,1,0-2,0V7.11A5,5,0,0,0,7.1,11H5.26a2.25,2.25,0,1,0,0,2H7.1A5,5,0,0,0,11,16.9v1.84a2.25,2.25,0,1,0,2,0V16.9A5,5,0,0,0,16.9,13h1.84a2.25,2.25,0,1,0,2-3.25ZM12,15.5A3.5,3.5,0,1,1,15.5,12,3.5,3.5,0,0,1,12,15.5Z"/>
  </g>
</svg>
