<svg id="Layer_1" data-name="Layer 1" xmlns="http://www.w3.org/2000/svg" viewBox="0 0 24 24">
  <defs>
    <style>.cls-1{fill:none;}</style>
  </defs>
  <title>ic_tag_add</title>
  <rect id="_Rectangle_" data-name="&lt;Rectangle&gt;" class="cls-1" x="2" y="2" width="20" height="20"/>
  <path
    d="M20,7.07,14.93,2l-4.2,1.38-8,8a2.11,2.11,0,0,0-.14,3l5.08,5.08a2.11,2.11,0,0,0,3-.14l8-8ZM15.5,8A1.5,1.5,0,1,1,17,6.5,1.5,1.5,0,0,1,15.5,8Z"/>
  <polygon points="19 17 19 14 17 14 17 17 14 17 14 19 17 19 17 22 19 22 19 19 22 19 22 17 19 17"/>
  <rect id="_Rectangle_2" data-name="&lt;Rectangle&gt;" class="cls-1" width="24" height="24"/>
</svg>
