<svg id="Layer_1" data-name="Layer 1" xmlns="http://www.w3.org/2000/svg" viewBox="0 0 24 24">
  <defs>
    <style>.cls-1{fill:none;}.cls-2{opacity:0.5;}</style>
  </defs>
  <title>ic_taser</title>
  <path d="M17,21l-1-7H15v1.5H13V14H11v1.5H9V14H8L7,21v1H9.65A2.75,2.75,0,0,0,12,23a2.75,2.75,0,0,0,2.35-1H17Z"/>
  <rect id="_Rectangle_" data-name="&lt;Rectangle&gt;" class="cls-1" width="24" height="24"/>
  <path class="cls-2"
        d="M8.61,12.36a4.7,4.7,0,0,0-1.42-.53c-.74-.2-1.44-.38-1.66-.9a.82.82,0,0,1-.07-.52c.08-.17.4-.28.74-.4a3.76,3.76,0,0,0,1-.44c.16-.11.62-.44.57-.91s-.82-.86-1.68-1.2c-.52-.21-1.4-.55-1.42-.78.16-.22,1.37-.31,2-.36a3.76,3.76,0,0,0,1.45-.25,1.42,1.42,0,0,0,.66-1.28A1.08,1.08,0,0,1,8,5a.65.65,0,0,1-.31.47,6,6,0,0,1-1.16.16c-1.27.1-2.58.2-2.54,1s.9,1,1.82,1.39c.4.16,1.24.49,1.27.67,0,0,0,.1-.29.29A3.39,3.39,0,0,1,6,9.39a1.75,1.75,0,0,0-1.14.75,1.29,1.29,0,0,0,.07,1C5.26,12,6.2,12.25,7,12.46a4.52,4.52,0,0,1,1.22.45A2.94,2.94,0,0,1,9.33,15.5H10A3.61,3.61,0,0,0,8.61,12.36Z"/>
  <path d="M9,4.21a.93.93,0,0,1-1,.84H8a.93.93,0,0,1-1-.84V.88A.93.93,0,0,1,8,.05H8A.93.93,0,0,1,9,.88Z"/>
  <path class="cls-2"
        d="M18.18,8.07C19.1,7.71,20,7.36,20,6.68s-1.28-.91-2.55-1l-.62-.06A1.05,1.05,0,0,1,16,6l-.18,0a1.27,1.27,0,0,0,.12.1,3.87,3.87,0,0,0,1.46.25c.58,0,1.79.14,1.94.36,0,.23-.89.57-1.41.78-.86.34-1.61.63-1.68,1.2s.41.8.56.91a3.76,3.76,0,0,0,1,.44c.35.12.67.23.75.4a.77.77,0,0,1-.08.52c-.22.52-.92.7-1.66.9a4.74,4.74,0,0,0-1.41.53A3.59,3.59,0,0,0,14,15.5h.66a2.92,2.92,0,0,1,1.1-2.59A4.52,4.52,0,0,1,17,12.46c.82-.21,1.75-.46,2.1-1.28a1.28,1.28,0,0,0,.06-1c-.19-.43-.67-.59-1.13-.75A3.39,3.39,0,0,1,17.2,9c-.28-.19-.29-.29-.29-.29C16.93,8.56,17.77,8.23,18.18,8.07Z"/>
  <path d="M17,5.17A.93.93,0,0,1,16,6h0a.93.93,0,0,1-1-.83V1.83A.93.93,0,0,1,16,1h0a.93.93,0,0,1,1,.83Z"/>
</svg>
