<svg id="Layer_1" data-name="Layer 1" xmlns="http://www.w3.org/2000/svg" viewBox="0 0 24 24">
  <defs>
    <style>.cls-1{fill:none;}</style>
  </defs>
  <title>ic_video_secure</title>
  <g id="_Group_" data-name="&lt;Group&gt;">
    <rect id="_Path_" data-name="&lt;Path&gt;" class="cls-1" width="24" height="24"/>
    <rect id="_Path_2" data-name="&lt;Path&gt;" class="cls-1" width="24" height="24"/>
    <g id="_Group_2" data-name="&lt;Group&gt;">
      <g id="_Group_3" data-name="&lt;Group&gt;">
        <polygon points="24 6.19 18 9 18 16 24 18.97 24 6.19"/>
      </g>
      <g id="_Group_4" data-name="&lt;Group&gt;">
        <path d="M1,6v5H2V6Z"/>
      </g>
      <g id="_Group_5" data-name="&lt;Group&gt;">
        <g id="_Group_6" data-name="&lt;Group&gt;">
          <path d="M5,5A1.8,1.8,0,0,0,3,7V17a1.8,1.8,0,0,0,2,2H17V5Zm9,12H6V11H7V9A2,2,0,0,1,9,7h2a2,2,0,0,1,2,2v2h1Z"/>
        </g>
        <g id="_Group_7" data-name="&lt;Group&gt;">
          <path d="M11,8H9A1,1,0,0,0,8,9v2h4V9A1,1,0,0,0,11,8Z"/>
        </g>
      </g>
    </g>
  </g>
</svg>
