<svg id="Layer_1" data-name="Layer 1" xmlns="http://www.w3.org/2000/svg" viewBox="0 0 24 24">
  <defs>
    <style>.cls-1,.cls-2{fill:none;}.cls-2{opacity:0.75;}</style>
  </defs>
  <title>ic_wave5k_audio</title>
  <path
    d="M6.92,16.78a1,1,0,0,1-.6-.2.8.8,0,0,1-.1-1.19A5.05,5.05,0,0,0,7.62,12a5.05,5.05,0,0,0-1.4-3.39.8.8,0,0,1,.11-1.19,1,1,0,0,1,1.3.1A6.71,6.71,0,0,1,9.46,12a6.68,6.68,0,0,1-1.84,4.48A.94.94,0,0,1,6.92,16.78Z"/>
  <path
    d="M10.16,19.39a.92.92,0,0,1-.59-.2A.83.83,0,0,1,9.45,18a8.89,8.89,0,0,0,2.32-6A8.92,8.92,0,0,0,9.45,6a.82.82,0,0,1,.11-1.21,1,1,0,0,1,1.3.1A10.62,10.62,0,0,1,13.62,12a10.56,10.56,0,0,1-2.76,7.08A.94.94,0,0,1,10.16,19.39Z"/>
  <path
    d="M13.4,22a1,1,0,0,1-.6-.2.81.81,0,0,1-.12-1.21A12.64,12.64,0,0,0,16.11,12a12.68,12.68,0,0,0-3.42-8.59A.8.8,0,0,1,12.8,2.2a1,1,0,0,1,1.33.11A14.3,14.3,0,0,1,18,12a14.28,14.28,0,0,1-3.88,9.69A.94.94,0,0,1,13.4,22Z"/>
  <path id="_Compound_Path_" data-name="&lt;Compound Path&gt;" class="cls-1" d="M0,0V24H24V0Z"/>
  <rect id="_Path_" data-name="&lt;Path&gt;" class="cls-2" width="24" height="24"/>
</svg>
