<svg id="Layer_1" data-name="Layer 1" xmlns="http://www.w3.org/2000/svg" viewBox="0 0 24 24">
  <defs>
    <style>.cls-1{fill:none;}</style>
  </defs>
  <title>ic_watch</title>
  <polygon points="17 4 7 4 8 1 16 1 17 4"/>
  <polygon points="16 23 8 23 7 20 17 20 16 23"/>
  <rect x="20" y="9" width="1" height="6"/>
  <path
    d="M17,7a1.06,1.06,0,0,1,1,1l0,8a1,1,0,0,1-1,1H7a1.06,1.06,0,0,1-1-1V8A1.06,1.06,0,0,1,7,7H17m0-2H7A3,3,0,0,0,4,8v8a3,3,0,0,0,3,3H17a3,3,0,0,0,3-3l0-8a3,3,0,0,0-3-3Z"/>
  <rect class="cls-1" width="24" height="24"/>
</svg>
