<svg id="Layer_1" data-name="Layer 1" xmlns="http://www.w3.org/2000/svg" viewBox="0 0 24 24">
  <defs>
    <style>.cls-1{fill:none;}</style>
  </defs>
  <title>ic_zoom_in</title>
  <g id="_Group_" data-name="&lt;Group&gt;">
    <rect id="_Rectangle_" data-name="&lt;Rectangle&gt;" class="cls-1" width="24" height="24"/>
    <path id="_Compound_Path_" data-name="&lt;Compound Path&gt;"
          d="M9.45,2A7.43,7.43,0,0,0,2,9.5,7.43,7.43,0,0,0,9.45,17a7.5,7.5,0,1,0,0-15Zm0,13A5.5,5.5,0,1,1,15,9.5,5.51,5.51,0,0,1,9.45,15Z"/>
    <rect id="_Rectangle_2" data-name="&lt;Rectangle&gt;" x="16.48" y="12.6" width="2.31" height="10.05"
          transform="translate(-7.3 17.63) rotate(-45)"/>
    <polygon
      points="13 8.75 10.25 8.75 10.25 6 8.75 6 8.75 8.75 6 8.75 6 10.25 8.75 10.25 8.75 13 10.25 13 10.25 10.25 13 10.25 13 8.75"/>
  </g>
</svg>
